SplineFontDB: 3.0
FontName: Mekorot-Rashi-Italic
FullName: Rashi font italic
FamilyName: Mekorot-Rashi
Weight: 

Copyright: Based on the Rashi font from the "Makor" (http://www.ctan.org/tex-archive/language/hebrew/makor/) set.\nLicensed under lppl (http://www.latex-project.org/lppl/lppl-1-3c.html).
Version: 000.003
ItalicAngle: -15
UnderlinePosition: -100
UnderlineWidth: 50
Ascent: 800
Descent: 200
LayerCount: 2
Layer: 0 0 "Back" 
Layer: 1 0 "Fore" 
XUID: [1021 686 1246326004 3441255]
UniqueID: 4240821
FSType: 8
OS2Version: 0
OS2_WeightWidthSlopeOnly: 0
OS2_UseTypoMetrics: 0
CreationTime: 1227525466
ModificationTime: 1243450395
OS2TypoAscent: 0
OS2TypoAOffset: 1
OS2TypoDescent: 0
OS2TypoDOffset: 1
OS2TypoLinegap: 0
OS2WinAscent: 0
OS2WinAOffset: 1
OS2WinDescent: 0
OS2WinDOffset: 1
HheadAscent: 0
HheadAOffset: 1
HheadDescent: 0
HheadDOffset: 1
OS2Vendor: 'PfEd'
DEI: 0
Encoding: iso8859-8
UnicodeInterp: none
NameList: Adobe Glyph List
DisplaySize: -24
AntiAlias: 1
FitToEm: 1
WinInfo: 0 42 16
BeginPrivate: 6
BlueValues 16 [-20 0 926 942 ]
StdHW 5 [236]
StemSnapH 41 [69 77 101 108 119 220 226 236 475 1165 ]
StdVW 5 [439]
StemSnapV 29 [96 322 411 425 431 439 491 ]
BlueShift 2 16
EndPrivate
BeginChars: 293 75

StartChar: exclam
Encoding: 33 33 0
Width: 308
VWidth: 699
Flags: HMW
VStem: 77 344.4
LayerCount: 2
Fore
SplineSet
361.9 730.8 m 0
 365.4 731.5 368.9 731.5 373.1 731.5 c 0
 394.8 731.5 416.5 721.7 421.4 702.1 c 0
 424.2 690.2 421.4 675.5 417.9 661.5 c 0
 416.5 655.9 415.1 651 413 645.4 c 0
 405.3 622.3 393.4 599.2 383.6 575.4 c 0
 349.3 487.2 311.5 399 273.7 310.8 c 0
 259.7 278.6 248.5 245 231.7 212.8 c 0
 225.4 200.2 215.6 185.5 200.2 184.1 c 2
 197.4 184.1 l 2
 188.3 184.1 179.9 190.4 181.3 200.2 c 0
 182 205.8 183.4 211.4 184.8 217.7 c 2
 187.6 226.8 l 1
 189.7 237.3 l 2
 195.3 266 200.2 294.7 204.4 323.4 c 0
 216.3 399 221.2 473.2 232.4 548.1 c 0
 235.2 569.8 239.4 591.5 242.9 613.2 c 0
 244.3 621.6 244.3 629.3 246.4 637 c 0
 247.1 639.1 247.1 640.5 247.8 641.9 c 0
 256.9 665.7 282.1 697.2 305.9 711.9 c 0
 322 721.7 344.4 728 361.9 730.8 c 0
179.9 142.8 m 1
 188.3 142.8 l 2
 196 142.8 203.7 141.4 210.7 140 c 0
 249.2 129.5 261.8 91 251.3 53.2002 c 0
 242.9 22.4004 219.8 -9.09961 184.8 -24.5 c 0
 175 -28.7002 165.2 -32.2002 155.4 -33.5996 c 0
 149.8 -34.2998 144.9 -35 140 -35 c 0
 131.6 -35 123.2 -33.5996 116.2 -31.5 c 0
 81.2002 -20.2998 66.5 17.5 77 55.2998 c 0
 79.0996 64.4004 82.5996 72.7998 87.5 81.9004 c 0
 98.7002 100.8 118.3 117.6 137.9 128.8 c 0
 151.9 137.2 165.9 140.7 179.9 142.8 c 1
EndSplineSet
EndChar

StartChar: quotedbl
Encoding: 34 34 1
Width: 541
VWidth: 699
Flags: HMW
HStem: 375.9 330.4<385.35 604.1>
LayerCount: 2
Fore
SplineSet
365.4 377.3 m 1
 375.9 401.8 392.7 427 406 450.8 c 2
 483 589.4 l 1
 518 651.7 l 2
 524.3 663.6 530.6 676.9 541.8 687.4 c 0
 557.9 702.8 577.5 706.3 596.4 706.3 c 0
 611.8 706.3 627.2 704.2 640.5 702.8 c 0
 655.9 702.1 668.5 704.2 679 694.4 c 1
 669.9 676.9 665.7 660.1 654.5 643.3 c 0
 634.2 613.2 606.2 586.6 580.3 560 c 2
 482.3 457.1 l 1
 427 400.4 l 2
 420.7 394.1 412.3 382.2 404.6 378 c 1
 400.4 376.6 395.5 375.9 389.9 375.9 c 0
 380.8 375.9 371.7 377.3 365.4 377.3 c 1
142.8 377.3 m 1
 177.8 448 220.5 518 259 588 c 2
 294 651.7 l 2
 300.3 662.9 306.6 675.5 316.4 685.3 c 0
 333.9 702.1 352.8 705.6 372.4 705.6 c 0
 388.5 705.6 404.6 703.5 418.6 702.8 c 2
 420 702.8 l 1
 432.6 702.8 l 2
 442.4 702.8 452.9 702.1 455 693.7 c 1
 455.7 692.3 455.7 690.9 455 688.8 c 0
 452.9 682.5 448.7 674.1 446.6 669.9 c 0
 434.7 644.7 416.5 622.3 396.2 600.6 c 2
 242.2 439.6 l 1
 200.2 395.5 l 2
 195.3 390.6 189 381.5 182.7 378 c 0
 180.6 377.3 178.5 377.3 176.4 377.3 c 2
 170.1 377.3 l 1
 142.8 377.3 l 1
EndSplineSet
EndChar

StartChar: numbersign
Encoding: 35 35 2
Width: 580
VWidth: 699
Flags: HW
HStem: 0 14.7G<81.9 134.4 81.9 81.9 308 379.4 308 308> 245 70.7<84.7 183.4 65.8 220.5 84.7 408.1 84.7 254.1 508.9 606.9> 460.6 72.1<170.8 351.4> 462 70.7<170.8 277.2 151.9 305.2 595 693.7>
LayerCount: 2
Fore
SplineSet
351.4 460.6 m 1xe0
 296.1 318.5 l 1
 439.6 316.4 l 1
 492.1 455.7 l 1
 351.4 460.6 l 1xe0
401.8 758.1 m 1
 474.6 758.1 l 1
 448 682.5 403.9 608.3 378 532.7 c 1xe0
 522.2 532.7 l 1
 548.1 608.3 592.2 682.5 618.1 758.1 c 1
 690.2 758.1 l 1
 644.7 650.3 l 1
 595 532.7 l 1
 712.6 532.7 l 1
 693.7 462 l 1
 567 462 l 1
 508.9 315.7 l 1
 626.5 315.7 l 1
 606.9 245 l 1
 480.9 245 l 1
 445.9 160.3 l 1
 379.4 0 l 1
 308 0 l 1
 331.1 56.7002 l 1
 382.9 182.7 l 1
 408.1 245 l 1
 254.1 245 l 1
 228.9 182.7 l 1
 179.2 61.5996 l 1
 161 16.7998 l 1
 153.3 0.700195 l 1
 134.4 0 l 1
 81.9004 0 l 1
 90.2998 32.2002 108.5 67.2002 122.5 99.4004 c 0
 142.8 147.7 161 196.7 183.4 245 c 1
 65.7998 245 l 1
 84.7002 315.7 l 1
 220.5 315.7 l 1
 277.2 462 l 1
 151.9 462 l 1
 170.8 532.7 l 1
 305.2 532.7 l 1xd0
 331.1 608.3 375.2 682.5 401.8 758.1 c 1
EndSplineSet
EndChar

StartChar: dollar
Encoding: 36 36 3
Width: 501
VWidth: 699
Flags: HMW
HStem: -16.8 54.6<234.5 234.5 234.5 263.2 234.5 263.2>
VStem: 491.4 83.3
LayerCount: 2
Fore
SplineSet
338.1 573.3 m 1
 299.6 428.4 l 2
 298.9 425.6 297.5 424.9 295.4 424.9 c 0
 289.8 424.9 279.3 438.2 281.4 447.3 c 0
 285.6 463.4 268.1 466.9 272.3 483 c 0
 275.8 495.6 281.4 501.9 284.9 514.5 c 0
 288.4 526.4 300.3 532 303.1 543.9 c 0
 305.9 553 323.4 549.5 326.2 558.6 c 0
 327.6 564.2 336 574.7 338.1 574.7 c 0
 338.8 574.7 338.8 574.7 338.1 573.3 c 1
380.8 581.7 m 1
 336 415.8 l 1
 363.3 392.7 l 1
 423.5 585.9 l 1
 380.8 581.7 l 1
292.6 254.1 m 1
 326.9 233.1 l 1
 271.6 42 l 1
 234.5 37.7998 l 1
 292.6 254.1 l 1
360.5 210 m 1
 315.7 42 l 1
 336 53.2002 352.1 53.9004 367.5 71.4004 c 0
 378 83.2998 382.2 93.0996 385 105 c 2
 389.2 119.7 l 1
 389.9 123.9 l 2
 392 131.6 394.8 137.9 396.2 143.5 c 0
 399 154 400.4 163.1 397.6 174.3 c 0
 392.7 192.5 382.2 197.4 368.9 210 c 0
 366.8 212.1 364 210 360.5 210 c 1
364 665 m 1
 351.4 617.4 l 1
 338.8 615.3 324.8 609 312.2 604.1 c 0
 243.6 576.1 190.4 512.4 172.9 448 c 0
 163.8 413.7 164.5 379.4 178.5 350 c 0
 189.7 326.9 205.8 307.3 226.1 292.6 c 0
 233.1 287 240.8 282.8 248.5 278.6 c 0
 252 277.2 257.6 275.8 258.3 272.3 c 0
 258.3 269.5 257.6 266.7 256.9 263.9 c 0
 255.5 259.7 254.1 254.8 252.7 250.6 c 2
 240.1 203 l 1
 195.3 35.7002 l 1
 186.9 40.5996 178.5 43.4004 174.3 52.5 c 0
 159.6 86.7998 196.7 138.6 165.9 165.2 c 0
 161.7 169.4 156.8 172.2 151.9 174.3 c 0
 147 175.7 142.1 176.4 136.5 176.4 c 0
 118.3 176.4 97.2998 166.6 84.7002 149.8 c 0
 79.7998 142.8 76.2998 135.1 74.2002 126.7 c 0
 71.4004 117.6 70.7002 108.5 71.4004 100.8 c 0
 76.2998 43.4004 120.4 -4.2002 182 -7 c 1
 154.7 -107.8 l 1
 193.9 -107.8 l 1
 218.4 -16.7998 l 1
 263.2 -16.7998 l 1
 238.7 -107.8 l 1
 274.4 -107.8 l 1
 293.3 -37.7998 l 2
 294 -34.2998 295.4 -27.2998 296.8 -21 c 0
 297.5 -16.7998 298.9 -13.2998 301 -11.2002 c 0
 305.9 -6.2998 322.7 -3.5 329 -1.40039 c 0
 347.9 4.90039 366.8 12.5996 384.3 23.7998 c 0
 450.8 66.5 489.3 135.8 507.5 203 c 2
 508.2 207.2 l 2
 522.9 263.2 489.3 313.6 453.6 343 c 0
 443.8 351.4 432.6 358.4 422.1 366.1 c 0
 417.9 368.9 409.5 371 408.1 375.9 c 0
 407.4 377.3 407.4 380.1 408.1 382.9 c 1
 409.5 385.7 410.9 389.2 410.9 392 c 1
 422.1 431.9 l 1
 462 580.3 l 1
 466.9 580.3 471.1 579.6 476 578.2 c 0
 492.1 572.6 492.8 559.3 491.4 542.5 c 0
 487.9 513.8 466.2 464.1 499.8 453.6 c 0
 503.3 452.2 508.2 452.2 512.4 452.2 c 2
 519.4 452.2 l 2
 548.8 453.6 567 479.5 574 506.1 c 0
 577.5 518.7 578.2 531.3 576.8 541.8 c 0
 569.1 576.8 536.9 599.9 506.1 613.9 c 0
 495.6 618.8 485.1 623.7 473.9 625.1 c 1
 484.4 665 l 1
 448.7 665 l 1
 438.9 629.3 l 1
 391.3 629.3 l 1
 401.1 665 l 1
 364 665 l 1
EndSplineSet
EndChar

StartChar: percent
Encoding: 37 37 4
Width: 1008
VWidth: 699
Flags: HW
LayerCount: 2
Fore
SplineSet
765.8 214.2 m 0
 767.2 224 769.3 233.8 772.1 242.9 c 0
 784.7 291.2 812 325.5 842.8 325.5 c 0
 847 325.5 850.5 324.8 854.7 324.1 c 1
 858.2 324.1 l 2
 895.3 324.1 937.3 277.2 921.2 219.1 c 2
 919.1 210.7 l 2
 917.7 205.1 916.3 198.8 914.9 193.9 c 0
 894.6 117.6 856.8 89.5996 827.4 89.5996 c 0
 814.8 89.5996 802.9 94.5 795.2 103.6 c 1
 763 103.6 749.7 153.3 765.8 214.2 c 0
254.8 427 m 0
 256.2 436.8 258.3 446.6 260.4 455.7 c 0
 273.7 504 300.3 539 331.8 539 c 0
 335.3 539 339.5 538.3 343 537.6 c 1
 346.5 537.6 l 2
 384.3 537.6 425.6 490.7 410.2 432.6 c 0
 409.5 429.8 408.8 427 407.4 424.2 c 1
 406 417.9 404.6 412.3 403.2 406.7 c 0
 382.9 330.4 345.8 302.4 316.4 302.4 c 0
 303.1 302.4 291.9 308 284.2 316.4 c 1
 251.3 316.4 238.7 366.1 254.8 427 c 0
873.6 429.1 m 0
 876.4 429.1 878.5 429.8 881.3 429.8 c 0
 891.1 429.8 900.2 428.4 908.6 427.7 c 0
 941.5 425.6 976.5 420.7 997.5 399 c 0
 1016.4 378.7 1019.9 348.6 1019.9 319.2 c 0
 1019.2 287 1013.6 253.4 1004.5 220.5 c 0
 997.5 191.8 987 163.8 975.1 135.8 c 0
 949.9 76.2998 904.4 -16.0996 828.1 -23.0996 c 0
 812.7 -24.5 796.6 -25.9004 781.2 -25.9004 c 0
 744.1 -25.9004 707.7 -19.5996 683.9 2.7998 c 0
 665 20.2998 660.8 46.9004 660.1 74.9004 c 0
 659.4 110.6 664.3 147.7 674.1 184.8 c 0
 679.7 203.7 686 223.3 693.7 242.2 c 0
 707.7 275.8 724.5 308 744.8 340.2 c 0
 753.2 353.5 758.8 365.4 770.7 377.3 c 0
 789.6 396.9 815.5 411.6 840 420 c 0
 850.5 424.2 862.4 428.4 873.6 429.1 c 0
274.4 -25.2002 m 1
 387.8 -25.2002 l 1
 399.7 -2.09961 415.8 21 429.8 43.4004 c 0
 458.5 89.5996 490 134.4 522.9 179.2 c 2
 758.8 483 l 2
 800.8 534.8 846.3 587.3 883.4 641.9 c 1
 805 641.9 l 2
 801.5 641.9 794.5 642.6 788.9 642.6 c 0
 784 642.6 779.8 641.9 777 639.8 c 0
 771.4 635.6 767.2 625.8 763.7 620.2 c 2
 732.2 573.3 l 2
 699.3 523.6 663.6 474.6 627.9 425.6 c 2
 509.6 269.5 l 2
 469 214.9 429.1 159.6 386.4 107.1 c 0
 350 62.2998 308 20.2998 274.4 -25.2002 c 1
371.7 643.3 m 0
 378.7 644 385.7 644.7 392.7 644.7 c 0
 439.6 644.7 489.3 625.1 506.8 588 c 0
 511 580.3 511 568.4 511.7 559.3 c 0
 513.1 536.2 511.7 513.1 508.2 489.3 c 0
 506.1 471.8 502.6 454.3 497.7 436.8 c 0
 483.7 382.9 458.5 329 424.2 280 c 0
 410.9 261.1 393.4 233.8 373.8 219.8 c 0
 349.3 202.3 315 196 289.1 192.5 c 0
 279.3 191.8 269.5 191.1 259.7 191.1 c 0
 221.2 191.1 179.2 199.5 160.3 225.4 c 0
 135.8 259.7 141.4 314.3 154.7 362.6 c 0
 157.5 373.1 160.3 382.9 163.8 392.7 c 0
 174.3 424.9 182 457.8 195.3 489.3 c 0
 206.5 513.8 224.7 539 240.8 562.1 c 0
 258.3 587.3 279.3 613.9 307.3 628.6 c 0
 329.7 639.8 349.3 640.5 371.7 643.3 c 0
EndSplineSet
EndChar

StartChar: ampersand
Encoding: 38 38 5
Width: 894
VWidth: 699
Flags: HMW
HStem: -17.5 91.7<653.1 771.75> 478.1 18.2
LayerCount: 2
Fore
SplineSet
898.8 117.6 m 1
 842.1 49 746.2 -17.5 665 -17.5 c 0
 641.2 -17.5 618.8 -11.9004 599.2 1.40039 c 0
 575.4 17.5 557.2 39.2002 540.4 62.2998 c 0
 536.2 68.5996 532 74.9004 528.5 81.9004 c 0
 527.1 84 525.7 88.2002 522.2 88.2002 c 0
 519.4 88.2002 515.9 84.7002 513.1 83.2998 c 0
 506.1 78.4004 498.4 73.5 490.7 68.5996 c 0
 465.5 53.2002 438.9 39.9004 412.3 28.7002 c 0
 391.3 21 371 13.2998 350 7.7002 c 0
 312.2 -2.7998 269.5 -10.5 228.9 -10.5 c 0
 163.8 -10.5 104.3 8.40039 81.9004 62.2998 c 0
 77 74.2002 74.2002 86.7998 73.5 100.1 c 0
 72.0996 117.6 73.5 137.2 77.7002 155.4 c 0
 79.0996 163.8 81.2002 172.2 83.2998 179.9 c 0
 86.7998 191.8 90.2998 203.7 95.9004 215.6 c 0
 128.1 283.5 193.2 335.3 256.9 375.2 c 0
 285.6 392.7 315.7 408.1 345.1 423.5 c 2
 368.9 437.5 l 2
 371.7 438.9 377.3 441 378.7 443.8 c 0
 380.8 446.6 379.4 450.8 378.7 452.9 c 1
 378 460.6 378 468.3 377.3 476.7 c 0
 375.2 504.7 374.5 533.4 378 562.8 c 0
 379.4 580.3 382.2 599.9 387.8 618.8 c 0
 392 636.3 398.3 653.1 407.4 669.2 c 0
 452.2 744.8 543.9 793.1 621.6 795.9 c 1
 623.7 796.6 625.8 796.6 627.2 796.6 c 0
 711.9 796.6 752.5 721 730.8 641.9 c 0
 726.6 625.1 719.6 609 710.5 592.9 c 0
 667.8 522.9 581 470.4 507.5 443.1 c 1
 554.4 308 l 1
 575.4 247.1 l 1
 588.7 207.9 l 1
 604.8 222.6 618.8 240.1 633.5 255.5 c 2
 665 289.8 l 1
 688.8 315.7 l 2
 712.6 340.9 745.5 378.7 754.6 412.3 c 0
 758.8 429.1 758.1 444.5 746.9 457.8 c 0
 742 462.7 737.1 466.9 730.8 469.7 c 0
 720.3 474.6 708.4 476.7 697.2 478.1 c 1
 702.1 497 l 1
 945.7 497 l 1
 945 494.2 945 490 943.6 486.5 c 0
 942.9 483.7 941.5 480.9 940.1 478.8 c 0
 934.5 473.2 916.3 469.7 908.6 466.9 c 0
 886.9 459.9 865.2 452.2 846.3 436.8 c 0
 822.5 416.5 802.9 390.6 782.6 367.5 c 2
 674.8 245 l 1
 632.1 196.7 l 2
 626.5 189.7 616.7 182 614.6 174.3 c 1
 614.6 173.6 l 1
 611.8 164.5 616.7 156.1 620.2 149.8 c 0
 630 135.1 642.6 122.5 655.9 111.3 c 0
 681.8 90.2998 717.5 74.2002 756 74.2002 c 0
 787.5 74.2002 820.4 84.7002 851.2 112 c 0
 858.9 119 868 126.7 874.3 135.1 c 1
 898.8 117.6 l 1
EndSplineSet
EndChar

StartChar: quotesingle
Encoding: 39 39 6
Width: 308
VWidth: 699
Flags: HMW
HStem: 375.2 333.2<149.8 406 149.8 406>
VStem: 149.8 305.9
LayerCount: 2
Fore
SplineSet
149.8 375.2 m 1
 160.3 399.7 175.7 423.5 189 447.3 c 2
 267.4 592.9 l 1
 305.2 662.2 l 2
 310.1 671.3 314.3 683.2 322 690.9 c 0
 331.8 701.4 345.8 702.8 357.7 704.9 c 0
 373.1 707 387.8 708.4 401.8 708.4 c 0
 410.2 708.4 418.6 707.7 427.7 706.3 c 0
 435.4 705.6 452.9 703.5 455.7 696.5 c 0
 456.4 695.1 456.4 692.3 455.7 689.5 c 0
 454.3 683.2 450.1 675.5 448 672 c 2
 437.5 646.8 421.4 624.4 402.5 602.7 c 0
 355.6 550.2 303.8 500.5 256.2 448 c 2
 210.7 398.3 l 2
 205.1 392 197.4 380.8 189.7 376.6 c 0
 186.2 374.5 181.3 375.2 178.5 375.2 c 2
 149.8 375.2 l 1
EndSplineSet
EndChar

StartChar: parenright
Encoding: 41 41 7
Width: 387
VWidth: 699
Flags: HW
LayerCount: 2
Fore
SplineSet
224 680.4 m 1
 231 688.1 238.7 694.4 246.4 700.7 c 0
 249.2 703.5 252.7 707 255.5 707.7 c 2
 256.2 708.4 256.9 708.4 256.9 708.4 c 1
 261.8 708.4 268.1 702.8 271.6 700.7 c 0
 286.3 692.3 299.6 681.8 311.5 669.9 c 0
 359.8 623.7 386.4 560 403.2 492.8 c 0
 422.8 415.8 416.5 331.1 395.5 245 c 2
 391.3 229.6 l 2
 347.9 68.5996 244.3 -86.7998 86.0996 -185.5 c 0
 58.0996 -203 28.7002 -219.8 -0.700195 -232.4 c 1
 -10.5 -205.1 l 1
 95.2002 -149.8 162.4 -48.2998 205.1 52.5 c 0
 222.6 93.7998 235.2 135.1 249.9 177.1 c 0
 260.4 207.9 272.3 238.7 280.7 270.2 c 0
 281.4 273 282.1 275.8 282.8 279.3 c 0
 298.9 345.1 307.3 413 308 477.4 c 0
 308 513.8 308 553 296.8 585.2 c 0
 288.4 609 273 626.5 257.6 644.7 c 0
 247.1 656.6 236.6 670.6 224 680.4 c 1
EndSplineSet
EndChar

StartChar: parenleft
Encoding: 40 40 8
Width: 387
VWidth: 699
Flags: HW
LayerCount: 2
Fore
SplineSet
264.6 -230.3 m 1
 247.1 -226.8 230.3 -210 217.7 -199.5 c 0
 173.6 -163.1 143.5 -114.1 123.9 -59.5 c 0
 99.4004 9.09961 96.5996 86.7998 106.4 166.6 c 0
 110.6 197.4 116.2 229.6 125.3 261.1 c 0
 156.8 379.4 221.2 494.9 324.8 589.4 c 0
 366.1 626.5 410.2 658.7 457.8 685.3 c 0
 473.9 694.4 496.3 708.4 513.8 711.9 c 1
 524.3 687.4 l 1
 501.2 674.1 479.5 660.8 458.5 643.3 c 0
 359.1 562.8 310.1 454.3 273.7 347.2 c 0
 263.2 316.4 254.1 285.6 245.7 254.8 c 0
 240.8 235.9 235.9 216.3 231.7 197.4 c 0
 215.6 125.3 198.1 54.5996 202.3 -14.7002 c 0
 205.8 -64.4004 217.7 -109.9 242.2 -149.8 c 0
 250.6 -163.1 261.1 -175 271.6 -186.2 c 0
 275.8 -190.4 286.3 -195.3 287 -201.6 c 2
 287 -203 l 1
 284.9 -210.7 268.8 -224.7 264.6 -230.3 c 1
EndSplineSet
EndChar

StartChar: asterisk
Encoding: 42 42 9
Width: 658
VWidth: 699
Flags: HW
LayerCount: 2
Fore
SplineSet
459.9 515.2 m 1
 473.9 566.3 448.7 607.6 460.6 658 c 2
 462.7 668.5 l 2
 468.3 688.1 477.4 710.5 494.2 724.5 c 0
 506.8 733.6 521.5 738.5 534.8 738.5 c 0
 553.7 738.5 569.1 729.4 570.5 709.8 c 0
 570.5 702.8 569.1 696.5 567.7 689.5 c 0
 565.6 683.2 563.5 676.9 562.1 670.6 c 1
 561.4 669.9 561.4 668.5 560.7 667.8 c 1
 560 663.6 559.3 659.4 557.9 655.9 c 2
 557.2 652.4 555.8 648.9 554.4 645.4 c 0
 534.8 601.3 501.9 562.8 489.3 517.3 c 1
 496.3 520.1 504.7 520.8 511 525.7 c 0
 528.5 536.2 544.6 553.7 560 567.7 c 0
 574.7 581 590.1 593.6 605.5 605.5 c 0
 622.3 618.8 639.1 630.7 658 635.6 c 0
 665 637 672.7 638.4 680.4 638.4 c 0
 687.4 638.4 693.7 637 698.6 634.2 c 0
 711.9 625.8 716.8 605.5 711.2 586.6 c 0
 708.4 575.4 702.1 564.9 691.6 557.2 c 0
 674.1 544.6 651 531.3 631.4 525 c 0
 604.1 516.6 576.1 516.6 548.1 511.7 c 0
 536.2 508.9 524.3 506.1 513.1 499.1 c 0
 509.6 497 502.6 493.5 501.9 490 c 1
 500.5 486.5 506.8 484.4 508.9 483.7 c 2
 517.3 478.1 526.4 474.6 536.9 471.8 c 0
 559.3 465.5 583.8 462 607.6 457.1 c 0
 626.5 452.9 643.3 450.1 654.5 435.4 c 0
 657.3 431.9 662.2 427 663.6 422.1 c 0
 664.3 417.9 663.6 413 661.5 407.4 c 0
 659.4 398.3 655.2 388.5 653.8 382.2 c 2
 653.1 380.8 653.1 378.7 652.4 377.3 c 2
 651.7 374.5 651 371.7 648.9 369.6 c 0
 633.5 352.8 614.6 346.5 596.4 346.5 c 0
 588.7 346.5 581.7 347.9 574.7 350 c 0
 556.5 355.6 546.7 371.7 536.9 387.1 c 0
 518.7 415.8 505.4 448 477.4 468.3 c 1
 473.2 445.2 470.4 423.5 471.8 401.8 c 0
 473.2 374.5 478.8 345.1 470.4 316.4 c 0
 468.3 308.7 465.5 300.3 461.3 292.6 c 0
 455.7 282.8 447.3 268.1 437.5 261.8 c 0
 425.6 254.1 414.4 250.6 404.6 250.6 c 0
 378.7 250.6 360.5 271.6 364 299.6 c 2
 366.1 308 l 2
 370.3 324.1 380.1 340.9 388.5 355.6 c 0
 409.5 392.7 436.8 430.5 447.3 469.7 c 1
 409.5 453.6 375.9 418.6 345.1 390.6 c 0
 326.9 374.5 308 357.7 284.9 351.4 c 0
 276.5 349.3 265.3 347.2 254.8 347.2 c 0
 245 347.2 235.9 349.3 231 353.5 c 0
 219.8 363.3 224.7 388.5 228.9 403.2 c 0
 229.6 406 229.6 408.1 230.3 410.9 c 0
 231 413.7 232.4 416.5 233.8 419.3 c 0
 240.1 428.4 251.3 437.5 261.1 443.8 c 0
 301 470.4 351.4 468.3 393.4 476.7 c 0
 404.6 478.8 415.8 481.6 427 485.8 c 0
 429.1 486.5 435.4 487.9 436.8 491.4 c 1
 436.8 491.4 l 1
 438.2 495.6 431.9 497.7 429.1 498.4 c 1
 420.7 502.6 415.8 507.5 406 509.6 c 0
 367.5 516.6 317.1 515.9 291.2 543.2 c 0
 285.6 548.8 278.6 557.9 277.2 567 c 0
 277.2 569.1 277.2 571.2 277.9 573.3 c 0
 278.6 577.5 280.7 581 282.1 584.5 c 0
 286.3 597.8 291.9 618.1 305.2 627.9 c 0
 314.3 633.5 330.4 636.3 345.1 636.3 c 0
 352.1 636.3 359.1 635.6 363.3 634.2 c 0
 381.5 629.3 392.7 611.8 401.8 597.1 c 0
 417.2 569.1 430.5 531.3 459.9 515.2 c 1
EndSplineSet
EndChar

StartChar: plus
Encoding: 43 43 10
Width: 854
VWidth: 699
Flags: HMW
HStem: 247.8 83.3
LayerCount: 2
Fore
SplineSet
569.1 625.1 m 1
 652.4 625.1 l 1
 574 331.8 l 1
 862.4 331.8 l 1
 840 247.8 l 1
 551.6 247.8 l 1
 473.2 -45.5 l 1
 389.2 -45.5 l 1
 468.3 247.8 l 1
 189 247.8 l 1
 211.4 331.8 l 1
 490.7 331.8 l 1
 569.1 625.1 l 1
EndSplineSet
EndChar

StartChar: comma
Encoding: 44 44 11
Width: 270
VWidth: 699
Flags: HMW
HStem: -163.1 334.6
VStem: -16.8 302.4
LayerCount: 2
Fore
SplineSet
-16.7998 -163.1 m 1
 -8.40039 -140.7 7.7002 -116.9 18.9004 -95.2002 c 2
 98.7002 53.2002 l 1
 130.2 112.7 l 2
 136.5 124.6 142.1 137.9 151.9 147.7 c 0
 170.8 168 194.6 170.8 217.7 170.8 c 0
 228.2 170.8 239.4 170.1 249.9 170.1 c 2
 250.6 170.1 l 1
 253.4 170.1 l 2
 264.6 170.1 282.1 170.1 285.6 160.3 c 0
 287.7 154.7 287.7 147.7 285.6 140.7 c 0
 278.6 114.8 249.9 85.4004 233.1 67.2002 c 2
 81.9004 -98 l 1
 46.2002 -137.2 l 2
 39.9004 -143.5 33.5996 -152.6 25.9004 -156.8 c 0
 15.4004 -163.1 2.7998 -163.1 -7.7002 -163.1 c 2
 -16.7998 -163.1 l 1
EndSplineSet
EndChar

StartChar: Amacron
Encoding: 256 256 12
Width: 465
VWidth: 699
Flags: HMW
HStem: 469.7 158.2<90.3 375.2 44.8 424.2 90.3 90.3>
LayerCount: 2
Fore
SplineSet
44.7998 627.9 m 1
 375.2 627.9 l 1
 424.2 469.7 l 1
 90.2998 469.7 l 1
 44.7998 627.9 l 1
EndSplineSet
EndChar

StartChar: period
Encoding: 46 46 13
Width: 270
VWidth: 699
Flags: HMW
HStem: -35.7 189
VStem: 49 186.2
LayerCount: 2
Fore
SplineSet
160.3 151.9 m 0
 163.8 152.6 166.6 152.6 170.1 152.6 c 0
 214.2 152.6 244.3 112 237.3 69.2998 c 0
 236.6 65.7998 235.9 62.2998 235.2 59.5 c 0
 226.1 27.2998 203 -2.09961 171.5 -21 c 0
 159.6 -27.2998 146.3 -32.9004 133.7 -35 c 0
 128.1 -35.7002 122.5 -35.7002 116.9 -35.7002 c 0
 102.9 -35.7002 89.5996 -33.5996 79.0996 -28 c 0
 48.2998 -11.9004 39.9004 22.4004 49 56.7002 c 0
 57.4004 87.5 79.7998 119 112.7 137.2 c 0
 128.8 147 144.2 149.8 160.3 151.9 c 0
EndSplineSet
EndChar

StartChar: slash
Encoding: 47 47 14
Width: 501
VWidth: 699
Flags: HW
LayerCount: 2
Fore
SplineSet
45.5 -16.7998 m 1
 52.5 -3.5 64.4004 8.40039 73.5 21.7002 c 2
 152.6 125.3 l 1
 407.4 462 l 1
 506.8 592.2 l 1
 534.8 630 l 2
 539 634.9 543.2 642.6 548.1 646.1 c 0
 550.9 647.5 555.1 648.2 559.3 648.2 c 0
 565.6 648.2 571.2 647.5 574.7 647.5 c 2
 648.9 647.5 l 1
 640.5 632.1 625.8 617.4 615.3 602.7 c 2
 537.6 500.5 l 1
 298.9 185.5 l 1
 190.4 42.7002 l 1
 160.3 2.7998 l 2
 156.1 -2.09961 151.9 -11.2002 146.3 -14.7002 c 0
 143.5 -16.7998 139.3 -17.5 134.4 -17.5 c 0
 128.8 -17.5 122.5 -16.7998 119 -16.7998 c 2
 45.5 -16.7998 l 1
EndSplineSet
EndChar

StartChar: zero
Encoding: 48 48 15
Width: 501
VWidth: 699
Flags: HMW
HStem: 641.2 14G<429.1 473.55>
LayerCount: 2
Fore
SplineSet
402.5 602 m 1
 371.7 596.4 l 1
 305.9 481.6 l 1
 262.5 320.6 l 1
 254.8 264.6 l 1
 235.2 120.4 l 1
 247.1 47.5996 l 1
 281.4 36.4004 l 1
 308.7 47.5996 l 1
 375.2 171.5 l 1
 393.4 232.4 l 1
 411.6 301 l 1
 423.5 353.5 l 1
 433.3 428.4 l 1
 437.5 549.5 l 1
 425.6 588 l 1
 402.5 602 l 1
428.4 306.6 m 0
 428.4 306.6 l 0
414.4 653.8 m 0
 420.7 654.5 426.3 655.2 431.9 655.2 c 0
 515.2 655.2 560 571.9 567 500.5 c 0
 573.3 442.4 567.7 378 550.9 313.6 c 0
 532.7 247.1 501.9 180.6 456.4 121.8 c 0
 435.4 93.0996 410.9 64.4004 382.9 42 c 0
 349.3 15.4004 308.7 0.700195 270.9 -4.90039 c 0
 258.3 -6.2998 243.6 -7.7002 229.6 -7.7002 c 0
 220.5 -7.7002 211.4 -7 203.7 -5.59961 c 0
 127.4 11.9004 110.6 93.0996 108.5 164.5 c 0
 106.4 219.8 112 279.3 128.1 338.8 c 0
 147 409.5 181.3 480.2 234.5 541.8 c 0
 282.8 597.8 345.1 644.7 414.4 653.8 c 0
EndSplineSet
EndChar

StartChar: one
Encoding: 49 49 16
Width: 501
VWidth: 699
Flags: HW
LayerCount: 2
Fore
SplineSet
263.9 595.7 m 1
 308 595.7 354.9 607.6 399.7 624.4 c 0
 417.2 631.4 436.8 644.7 453.6 648.9 c 0
 459.9 650.3 466.9 651 473.9 651 c 0
 485.8 651 498.4 649.6 509.6 649.6 c 1
 381.5 172.9 l 1
 372.4 140 l 2
 366.1 116.9 361.2 93.7998 364 72.0996 c 0
 365.4 60.2002 366.8 49 375.9 41.2998 c 0
 386.4 32.2002 408.8 29.4004 424.9 29.4004 c 1
 414.4 -9.7998 l 1
 95.9004 -9.7998 l 1
 105.7 29.4004 l 1
 138.6 35 172.2 35.7002 198.1 67.2002 c 0
 213.5 86.0996 221.9 109.2 228.2 131.6 c 0
 233.1 150.5 236.6 168.7 241.5 185.5 c 2
 300.3 406.7 l 1
 317.8 470.4 l 1
 322 486.5 l 2
 324.1 494.2 325.5 501.9 325.5 509.6 c 0
 324.1 533.4 304.5 541.8 282.1 546 c 0
 276.5 546.7 262.5 545.3 259 549.5 c 0
 256.9 551.6 258.3 557.9 259 560.7 c 0
 260.4 572.6 260.4 584.5 263.9 595.7 c 1
EndSplineSet
EndChar

StartChar: two
Encoding: 50 50 17
Width: 501
VWidth: 699
Flags: HW
HStem: -7 116.2<275.8 296.8 275.8 424.9> 568.4 87.5<363.3 473.55>
LayerCount: 2
Fore
SplineSet
196 96.5996 m 1
 196.7 95.2002 l 1x40
 196 96.5996 l 1
172.9 475.3 m 1
 191.1 506.1 212.8 529.9 238 555.8 c 0
 250.6 568.4 261.1 582.4 274.4 593.6 c 0
 298.9 614.6 331.8 630 361.2 639.8 c 0
 391.3 649.6 425.6 655.9 458.5 655.9 c 0
 488.6 655.9 516.6 651 539 639.1 c 0
 596.4 609.7 611.8 539 593.6 469.7 c 2
 587.3 450.1 l 2
 557.9 369.6 483.7 308 413.7 255.5 c 2
 303.8 172.2 l 1
 196.7 96.5996 l 1
 228.9 105.7 260.4 109.2 291.2 109.2 c 0
 302.4 109.2 314.3 108.5 325.5 107.8 c 0
 342.3 106.4 360.5 104.3 378.7 104.3 c 0
 385 104.3 392 104.3 398.3 105 c 0
 415.1 107.8 433.3 118.3 446.6 130.2 c 0
 451.5 135.1 457.8 145.6 464.1 148.4 c 0
 466.2 149.8 468.3 149.8 471.1 149.8 c 2
 478.8 149.8 l 1
 512.4 149.8 l 1
 424.9 -7 l 1
 34.2998 -7 l 1xc0
 36.4004 1.40039 37.7998 12.5996 40.5996 23.0996 c 0
 42 28.7002 44.0996 34.2998 46.9004 39.2002 c 0
 53.2002 48.2998 70.7002 58.0996 79.7998 65.0996 c 0
 106.4 86.0996 134.4 107.1 161 129.5 c 0
 235.9 193.2 311.5 253.4 375.2 328.3 c 0
 399.7 357.7 426.3 389.2 440.3 422.8 c 0
 443.8 430.5 446.6 438.2 448.7 445.9 c 0
 455 469.7 455.7 493.5 449.4 513.1 c 0
 438.2 546.7 406.7 568.4 368.9 568.4 c 0
 357.7 568.4 345.8 566.3 333.2 562.8 c 0
 286.3 546.7 245 497.7 214.2 459.2 c 1
 172.9 475.3 l 1
EndSplineSet
EndChar

StartChar: three
Encoding: 51 51 18
Width: 501
VWidth: 699
Flags: HMW
HStem: -14 58.1 584.5 74.9<337.75 464.1>
LayerCount: 2
Fore
SplineSet
240.1 541.8 m 1
 236.6 550.2 235.2 560 232.4 568.4 c 0
 231.7 571.9 229.6 575.4 231 578.9 c 1
 231 580.3 l 1
 234.5 587.3 251.3 595 257.6 599.2 c 0
 285.6 616 314.3 630.7 343.7 641.2 c 0
 376.6 652.4 413.7 659.4 448.7 659.4 c 0
 479.5 659.4 509.6 653.8 532 639.8 c 0
 568.4 617.4 578.9 576.1 567.7 534.8 c 0
 559.3 503.3 537.6 471.1 505.4 446.6 c 0
 471.8 420.7 431.9 406.7 395.5 387.8 c 1
 425.6 382.2 452.9 378 475.3 359.1 c 0
 517.3 322.7 526.4 261.8 510.3 200.9 c 0
 498.4 157.5 473.9 114.1 438.9 78.4004 c 0
 390.6 30.0996 320.6 -0.700195 259.7 -10.5 c 0
 242.9 -12.5996 226.8 -14 210.7 -14 c 0
 172.9 -14 136.5 -7.7002 102.9 2.7998 c 0
 91 6.2998 79.7998 11.2002 69.2998 16.0996 c 0
 66.5 17.5 60.9004 19.5996 59.5 22.4004 c 1
 59.5 25.2002 l 1
 60.9004 28.7002 64.4004 33.5996 66.5 35.7002 c 1
 72.7998 46.9004 79.7998 57.4004 86.0996 67.9004 c 1
 101.5 65.7998 114.8 57.4004 128.8 53.2002 c 0
 149.1 47.5996 170.8 43.4004 193.9 43.4004 c 0
 221.9 43.4004 251.3 49.7002 279.3 67.2002 c 0
 300.3 80.5 318.5 100.8 332.5 120.4 c 0
 346.5 140.7 357 163.8 363.3 186.2 c 0
 376.6 235.9 367.5 284.9 322.7 304.5 c 0
 314.3 308.7 305.9 310.1 297.5 310.1 c 0
 277.9 310.1 259 302.4 235.9 296.8 c 1
 230.3 336.7 l 1
 249.9 345.8 269.5 358.4 289.1 370.3 c 0
 330.4 395.5 372.4 422.1 400.4 462.7 c 0
 408.1 473.9 413 485.8 416.5 497.7 c 0
 427.7 539 410.2 579.6 365.4 583.8 c 1
 363.3 584.5 360.5 584.5 357.7 584.5 c 0
 317.8 584.5 280.7 552.3 240.1 541.8 c 1
EndSplineSet
EndChar

StartChar: four
Encoding: 52 52 19
Width: 501
VWidth: 699
Flags: HMW
HStem: -9.8 43.4<434.35 442.05 434.35 453.6> 166.6 61.6<73.5 91 91 91 91 286.3>
LayerCount: 2
Fore
SplineSet
361.2 453.6 m 1
 150.5 227.5 l 1
 304.5 227.5 l 1
 361.2 453.6 l 1
73.5 166.6 m 1
 84.7002 207.9 l 1
 91 228.2 l 1
 120.4 260.4 l 1
 180.6 325.5 l 1
 371.7 530.6 l 1
 450.1 615.3 l 1
 485.8 652.4 l 1
 504.7 654.5 l 1
 555.8 654.5 l 1
 471.8 342.3 l 1
 449.4 259.7 l 2
 448.7 254.8 445.2 247.1 443.1 240.1 c 1
 442.4 235.2 441.7 231.7 442.4 228.9 c 1
 443.8 226.1 446.6 225.4 450.1 225.4 c 0
 455 225.4 461.3 226.8 464.8 228.9 c 0
 482.3 236.6 497 253.4 503.3 270.2 c 1
 544.6 270.2 l 1
 505.4 166.6 l 1
 424.9 166.6 l 1
 409.5 116.2 l 2
 405.3 100.8 402.5 85.4004 403.9 70.7002 c 0
 404.6 57.4004 409.5 42 422.1 35.7002 c 0
 425.6 34.2998 431.2 33.5996 437.5 33.5996 c 0
 446.6 33.5996 457.8 35 465.5 35 c 1
 453.6 -9.7998 l 1
 161 -9.7998 l 1
 172.2 32.2002 l 1
 192.5 32.2002 224.7 33.5996 244.3 49.7002 c 0
 254.1 58.0996 259.7 72.0996 263.9 82.5996 c 0
 268.1 91.7002 270.9 100.8 273.7 110.6 c 0
 278.6 128.8 281.4 147.7 286.3 166.6 c 1
 73.5 166.6 l 1
EndSplineSet
EndChar

StartChar: five
Encoding: 53 53 20
Width: 501
VWidth: 699
Flags: HMW
HStem: -17.5 49.7 315 132.3<273.35 346.5> 532 107.8<326.2 371.7 371.7 487.2 487.2 493.5 311.5 371.7>
LayerCount: 2
Fore
SplineSet
149.1 315.7 m 1
 185.5 395.5 227.5 474.6 266 554.4 c 2
 296.8 616.7 l 2
 299.6 621.6 303.8 635.6 308.7 638.4 c 0
 310.8 639.8 313.6 640.5 316.4 640.5 c 0
 319.9 640.5 323.4 639.8 326.2 639.8 c 2
 371.7 639.8 l 1
 487.2 639.8 l 2
 499.8 639.8 512.4 639.1 525.7 639.1 c 0
 532 639.1 538.3 639.1 544.6 639.8 c 0
 561.4 641.2 568.4 659.4 581 667.1 c 0
 582.4 667.8 584.5 668.5 587.3 668.5 c 0
 589.4 668.5 591.5 667.8 592.9 667.8 c 2
 622.3 667.8 l 1
 559.3 532 l 1
 311.5 532 l 1
 298.2 499.1 280 465.5 263.2 433.3 c 1
 285.6 444.5 312.2 447.3 334.6 447.3 c 2
 346.5 447.3 l 2
 435.4 443.1 508.9 385.7 512.4 297.5 c 0
 513.1 276.5 510.3 252.7 504 228.9 c 0
 493.5 191.1 475.3 153.3 450.8 122.5 c 0
 385 41.2998 272.3 -16.7998 179.9 -17.5 c 2
 168.7 -17.5 l 2
 137.9 -17.5 107.8 -15.4004 81.2002 -4.90039 c 0
 69.2998 0 59.5 7.7002 48.2998 14.7002 c 1
 77 58.0996 l 1
 90.2998 54.5996 102.2 47.5996 115.5 43.4004 c 0
 137.2 36.4004 161.7 31.5 187.6 31.5 c 0
 205.1 31.5 223.3 34.2998 240.8 39.2002 c 0
 287 53.2002 347.2 100.1 366.8 144.9 c 0
 368.2 148.4 369.6 151.9 370.3 155.4 c 0
 373.1 163.8 373.8 172.2 375.2 179.9 c 0
 380.8 219.1 376.6 256.2 356.3 284.9 c 0
 339.5 306.6 311.5 315 281.4 315 c 0
 265.3 315 248.5 312.9 232.4 309.4 c 0
 221.9 306.6 211.4 303.8 200.9 300.3 c 0
 196 298.2 189 294.7 184.1 294.7 c 1
 184.1 294.7 l 1
 179.9 294.7 175.7 298.2 172.9 300.3 c 0
 164.5 305.2 156.8 310.8 149.1 315.7 c 1
EndSplineSet
EndChar

StartChar: six
Encoding: 54 54 21
Width: 501
VWidth: 699
Flags: HMW
HStem: -17.5 44.1<227.15 260.75> 362.6 64.4<317.1 389.9>
LayerCount: 2
Fore
SplineSet
211.4 194.6 m 0
 235.9 287 294 362.6 340.2 362.6 c 0
 386.4 362.6 403.9 287 379.4 194.6 c 0
 354.2 101.5 296.8 26.5996 250.6 26.5996 c 0
 203.7 26.5996 186.2 101.5 211.4 194.6 c 0
312.2 411.6 m 1
 312.9 412.3 312.9 413 312.9 413.7 c 0
 317.8 430.5 333.9 450.8 345.1 465.5 c 0
 375.2 504.7 413 539 455 563.5 c 0
 471.1 572.6 488.6 578.9 504.7 587.3 c 0
 529.9 600.6 571.2 595.7 588.7 625.1 c 0
 592.2 631.4 595 638.4 596.4 644.7 c 1
 583.8 646.8 571.2 648.2 557.9 648.2 c 0
 491.4 648.2 416.5 619.5 354.9 579.6 c 0
 304.5 547.4 252.7 506.1 213.5 459.9 c 0
 162.4 399.7 127.4 329 109.2 259.7 c 0
 105 244.3 101.5 228.2 98.7002 212.8 c 0
 91.7002 169.4 93.0996 122.5 107.1 85.4004 c 0
 130.2 25.2002 184.1 -17.5 254.8 -17.5 c 0
 266.7 -17.5 278.6 -16.7998 290.5 -14 c 0
 329 -7 366.1 14 398.3 39.9004 c 0
 437.5 70 469.7 109.2 491.4 150.5 c 0
 502.6 170.8 511 191.8 516.6 213.5 c 0
 539 298.2 522.2 386.4 448 415.8 c 0
 431.2 422.8 411.6 426.3 391.3 427 c 2
 389.9 427 l 2
 364 427 338.1 420.7 312.2 411.6 c 1
EndSplineSet
EndChar

StartChar: seven
Encoding: 55 55 22
Width: 501
VWidth: 699
Flags: HMW
HStem: 522.2 112.7<314.65 361.9 316.4 361.9 356.3 361.9 356.3 373.1 356.3 523.6> 641.2 14G<302.75 309.75>
LayerCount: 2
Fore
SplineSet
180.6 452.9 m 1
 186.9 470.4 198.1 488.6 206.5 505.4 c 2
 254.8 602 l 1
 272.3 637 l 2
 275.1 641.2 276.5 647.5 281.4 650.3 c 0
 287 653.1 298.2 655.2 307.3 655.2 c 0
 312.2 655.2 316.4 655.2 318.5 653.8 c 0
 323.4 651 324.8 644 330.4 641.2 c 0
 338.8 636.3 350.7 634.9 361.9 634.9 c 0
 391.3 634.2 420.7 634.2 450.8 634.2 c 0
 509.6 634.2 569.8 634.9 629.3 634.9 c 1
 628.6 626.5 627.2 618.1 624.4 609.7 c 0
 609.7 554.4 563.5 508.9 529.9 457.8 c 0
 465.5 359.8 408.8 256.2 361.2 152.6 c 0
 343 112 326.2 70.7002 311.5 29.4004 c 0
 307.3 18.9004 303.8 8.40039 301 -2.09961 c 1
 301 -2.09961 l 1
 300.3 -4.2002 300.3 -6.2998 299.6 -9.09961 c 0
 298.9 -11.2002 297.5 -13.2998 296.1 -14.7002 c 0
 294 -17.5 289.8 -16.7998 287 -16.7998 c 2
 261.8 -16.7998 l 1
 158.2 -16.7998 l 1
 174.3 24.5 196.7 65.7998 218.4 105.7 c 0
 270.2 198.8 331.8 291.2 400.4 376.6 c 2
 476 467.6 l 2
 492.1 485.8 510.3 503.3 523.6 522.2 c 1
 373.1 522.2 l 1
 328.3 522.2 l 1
 316.4 522.2 l 2
 312.9 522.2 309.4 522.2 305.9 520.8 c 0
 274.4 511 246.4 481.6 232.4 452.9 c 1
 180.6 452.9 l 1
EndSplineSet
EndChar

StartChar: eight
Encoding: 56 56 23
Width: 501
VWidth: 699
Flags: HMW
HStem: -27.3 14.7G<235.9 279.65> 595 55.3<401.8 422.1 395.5 460.6>
LayerCount: 2
Fore
SplineSet
261.8 271.6 m 1
 238 248.5 l 1
 215.6 203 l 1
 200.2 159.6 l 1
 191.1 112 l 1
 189 84 l 1
 209.3 50.4004 l 1
 245.7 28 l 1
 289.8 24.5 l 1
 333.9 43.4004 l 1
 372.4 70 l 1
 391.3 101.5 l 1
 394.8 148.4 l 1
 390.6 178.5 l 1
 364 208.6 l 1
 318.5 241.5 l 1
 261.8 271.6 l 1
347.9 579.6 m 1
 315 547.4 l 1
 301 521.5 l 1
 296.8 479.5 l 1
 308.7 460.6 l 1
 331.1 432.6 l 1
 363.3 414.4 l 1
 399 385 l 1
 417.9 378 l 1
 452.9 416.5 l 1
 476.7 446.6 l 1
 491.4 500.5 l 1
 497.7 537.6 l 1
 493.5 567 l 1
 477.4 581 l 1
 450.1 589.4 l 1
 422.1 595 l 1
 395.5 595 l 1
 347.9 579.6 l 1
227.5 300.3 m 1
 194.6 326.9 179.2 361.2 180.6 407.4 c 0
 180.6 424.2 183.4 443.1 188.3 461.3 c 0
 193.2 480.2 200.9 498.4 210 514.5 c 0
 260.4 599.9 359.1 650.3 444.5 650.3 c 0
 476.7 650.3 507.5 643.3 532.7 627.9 c 0
 557.2 613.2 578.2 588.7 586.6 560.7 c 0
 592.9 539 592.2 513.1 585.2 487.2 c 0
 578.2 458.5 562.8 429.8 539.7 408.1 c 0
 515.9 385.7 490 368.2 462 352.1 c 1
 478.1 345.1 490.7 326.9 499.8 312.9 c 0
 525 275.8 529.9 225.4 515.9 174.3 c 0
 505.4 133.7 483 93.7998 450.8 60.2002 c 0
 392.7 -0.700195 315 -27.2998 244.3 -27.2998 c 0
 227.5 -27.2998 211.4 -25.9004 196 -23.0996 c 0
 141.4 -13.2998 98 19.5996 85.4004 72.0996 c 0
 81.2002 91.7002 82.5996 114.1 88.2002 136.5 c 0
 102.9 191.8 146.3 249.2 196.7 281.4 c 0
 206.5 287.7 217 296.1 227.5 300.3 c 1
EndSplineSet
EndChar

StartChar: nine
Encoding: 57 57 24
Width: 501
VWidth: 699
Flags: HMW
HStem: 584.5 60.2<399 405.3>
LayerCount: 2
Fore
SplineSet
368.2 582.4 m 1
 332.5 554.4 l 1
 303.1 477.4 l 1
 281.4 428.4 l 1
 273 372.4 l 1
 273 327.6 l 1
 285.6 288.4 l 1
 312.9 266 l 1
 349.3 266 l 1
 375.9 280 l 1
 404.6 346.5 l 1
 420 406 l 1
 434.7 458.5 l 1
 435.4 514.5 l 1
 427 567 l 1
 405.3 584.5 l 1
 368.2 582.4 l 1
353.5 222.6 m 1
 342.3 219.8 332.5 212.1 321.3 209.3 c 0
 304.5 205.1 287.7 203 270.9 203 c 0
 252 203 234.5 205.8 219.1 211.4 c 0
 143.5 241.5 124.6 329 147.7 415.1 c 0
 154 437.5 163.1 459.9 174.3 481.6 c 0
 192.5 514.5 218.4 545.3 247.8 571.9 c 0
 290.5 610.4 346.5 644.7 399 644.7 c 2
 403.9 644.7 l 2
 428.4 643.3 452.2 639.1 473.2 630.7 c 0
 571.9 591.5 583.8 475.3 554.4 364.7 c 0
 546 333.2 534.1 302.4 520.1 274.4 c 0
 466.9 165.2 365.4 67.9004 251.3 20.2998 c 0
 193.9 -4.2002 133.7 -15.4004 77.7002 -15.4004 c 1
 80.5 -4.90039 85.4004 5.59961 90.2998 15.4004 c 0
 91.7002 18.9004 93.0996 24.5 95.9004 27.2998 c 0
 100.8 32.2002 119 30.7998 125.3 31.5 c 0
 147 35 168.7 42.7002 189 53.2002 c 0
 242.9 80.5 296.1 125.3 328.3 175.7 c 0
 338.1 191.1 348.6 205.8 353.5 222.6 c 1
EndSplineSet
EndChar

StartChar: colon
Encoding: 58 58 25
Width: 541
VWidth: 699
Flags: HMW
VStem: 140.7 297.5
LayerCount: 2
Fore
SplineSet
264.6 184.8 m 1
 274.4 176.4 281.4 163.8 289.1 153.3 c 2
 322 109.9 l 2
 326.9 103.6 340.9 92.4004 340.9 83.2998 c 0
 340.9 80.5 336.7 77.7002 334.6 75.5996 c 2
 314.3 59.5 l 1
 241.5 0.700195 l 2
 235.9 -4.2002 221.9 -18.9004 214.9 -18.9004 c 0
 211.4 -18.9004 210 -15.4004 208.6 -13.2998 c 2
 194.6 4.90039 l 1
 140.7 79.7998 l 1
 141.4 80.5 l 1
 264.6 184.8 l 1
362.6 551.6 m 1
 377.3 532.7 l 1
 421.4 474.6 l 1
 436.1 455.7 l 1
 438.9 448 l 1
 421.4 434.7 l 1
 373.1 397.6 l 1
 326.9 360.5 l 1
 310.1 348.6 l 1
 303.8 354.9 l 1
 291.2 372.4 l 1
 237.3 447.3 l 1
 238 448 l 1
 362.6 551.6 l 1
EndSplineSet
EndChar

StartChar: semicolon
Encoding: 59 59 26
Width: 426
VWidth: 699
Flags: HW
LayerCount: 2
Fore
SplineSet
342.3 631.4 m 0
 345.8 632.1 349.3 632.1 353.5 632.1 c 0
 360.5 632.1 367.5 631.4 373.8 629.3 c 0
 413 619.5 425.6 581.7 415.1 544.6 c 0
 408.1 515.9 387.1 487.9 354.9 471.1 c 0
 342.3 464.8 329.7 460.6 317.8 459.2 c 0
 313.6 458.5 310.1 458.5 306.6 458.5 c 0
 257.6 458.5 232.4 502.6 244.3 548.1 c 0
 249.2 564.9 258.3 581.7 273.7 597.1 c 0
 282.1 605.5 292.6 613.2 303.1 618.8 c 0
 315.7 625.8 329 630 342.3 631.4 c 0
-22.4004 -166.6 m 1
 18.9004 -96.5996 56 -24.5 94.5 46.9004 c 2
 130.2 112 l 2
 136.5 123.2 141.4 135.1 151.2 144.9 c 0
 167.3 161.7 183.4 163.8 200.9 163.8 c 0
 206.5 163.8 212.1 163.1 217.7 163.1 c 0
 224.7 163.1 231 163.8 238 163.8 c 0
 243.6 163.8 248.5 163.1 253.4 163.1 c 1
 261.1 161.7 280 163.1 282.1 155.4 c 0
 283.5 151.9 282.1 146.3 281.4 142.1 c 0
 280.7 139.3 280 137.2 279.3 135.1 c 0
 272.3 109.2 249.2 86.0996 231.7 63 c 0
 214.9 41.2998 193.2 20.2998 174.3 0 c 2
 78.4004 -102.9 l 1
 37.0996 -147.7 l 2
 32.2002 -152.6 25.9004 -162.4 19.5996 -165.2 c 0
 17.5 -165.9 15.4004 -166.6 13.2998 -166.6 c 2
 7 -166.6 l 1
 -22.4004 -166.6 l 1
EndSplineSet
EndChar

StartChar: less
Encoding: 60 60 27
Width: 782
VWidth: 699
Flags: HW
LayerCount: 2
Fore
SplineSet
857.5 621.6 m 1
 853.3 599.9 l 1
 840.7 554.4 l 1
 833.7 532.7 l 1
 817.6 525.7 l 1
 784.7 513.1 l 1
 676.2 470.4 l 1
 415.1 367.5 l 1
 331.8 333.9 l 1
 286.3 317.1 l 1
 292.6 308 308.7 303.8 318.5 298.2 c 0
 340.2 287.7 361.2 275.8 382.9 263.9 c 2
 607.6 144.2 l 1
 683.9 103.6 l 1
 706.3 91.7002 l 2
 708.4 90.2998 713.3 88.9004 714 86.0996 c 1
 715.4 84 714.7 80.5 713.3 76.2998 c 0
 711.9 70.7002 709.8 65.0996 708.4 61.5996 c 2
 691.6 -2.7998 l 1
 639.8 21 592.2 51.0996 541.8 77.7002 c 2
 268.1 224.7 l 1
 192.5 265.3 l 2
 185.5 268.8 169.4 273 166.6 280.7 c 0
 165.9 282.1 166.6 284.2 166.6 286.3 c 1
 167.3 288.4 168.7 291.2 168.7 292.6 c 1
 177.1 323.4 l 2
 178.5 328.3 179.2 336 181.3 342.3 c 2
 182 346.5 183.4 350 185.5 352.8 c 0
 188.3 356.3 194.6 357.7 198.1 359.1 c 2
 231 372.4 l 1
 362.6 424.2 l 1
 688.8 553.7 l 1
 798 597.1 l 2
 817.6 604.8 838.6 611.8 857.5 621.6 c 1
EndSplineSet
EndChar

StartChar: equal
Encoding: 61 61 28
Width: 854
VWidth: 699
Flags: HMW
HStem: 162.4 74.9<186.2 827.4 165.9 847> 360.5 75.6
LayerCount: 2
Fore
SplineSet
186.2 237.3 m 1
 847 237.3 l 1
 827.4 162.4 l 1
 165.9 162.4 l 1
 186.2 237.3 l 1
239.4 436.8 m 1
 903.7 436.8 l 1
 883.4 360.5 l 1
 219.1 360.5 l 1
 239.4 436.8 l 1
EndSplineSet
EndChar

StartChar: greater
Encoding: 62 62 29
Width: 782
VWidth: 699
Flags: HW
LayerCount: 2
Fore
SplineSet
256.9 621.6 m 1
 307.3 597.8 354.2 568.4 403.2 542.5 c 2
 654.5 407.4 l 2
 686.7 389.9 719.6 373.8 751.8 355.6 c 0
 758.8 351.4 767.2 347.2 774.2 343.7 c 0
 777.7 341.6 781.9 340.2 781.9 336 c 0
 781.9 331.1 781.2 324.8 779.1 318.5 c 0
 775.6 305.9 770.7 293.3 767.9 282.8 c 0
 767.2 280 766.5 276.5 765.8 272.3 c 0
 765.1 269.5 763.7 266.7 762.3 264.6 c 0
 755.3 257.6 733.6 252.7 725.2 249.2 c 2
 623.7 208.6 l 1
 276.5 70.7002 l 1
 149.1 20.2998 l 2
 129.5 12.5996 109.9 3.5 89.5996 -2.7998 c 1
 106.4 60.2002 l 1
 114.8 84.7002 l 1
 126 90.2998 l 1
 154.7 101.5 l 1
 261.1 143.5 l 1
 528.5 248.5 l 1
 613.2 282.1 l 1
 665 302.4 l 1
 665.7 303.1 l 1
 629.3 321.3 l 1
 564.2 356.3 l 1
 346.5 472.5 l 1
 264.6 515.9 l 1
 243.6 527.8 l 1
 234.5 533.4 l 1
 239.4 557.2 l 1
 256.9 621.6 l 1
EndSplineSet
EndChar

StartChar: question
Encoding: 63 63 30
Width: 465
VWidth: 699
Flags: HW
LayerCount: 2
Fore
SplineSet
259 133 m 1
 267.4 133 l 2
 308 133 334.6 96.5996 328.3 57.4004 c 0
 327.6 54.5996 326.9 51.7998 326.2 48.2998 c 0
 315 6.2998 274.4 -32.9004 229.6 -38.5 c 0
 226.1 -39.2002 221.9 -39.2002 217.7 -39.2002 c 0
 210 -39.2002 203 -38.5 196 -36.4004 c 0
 158.9 -25.2002 146.3 10.5 156.1 46.9004 c 0
 162.4 71.4004 179.2 95.9004 204.4 113.4 c 0
 222.6 126 240.1 130.2 259 133 c 1
294.7 758.1 m 2
 296.1 758.1 l 2
 305.9 758.1 310.1 744.1 315.7 738.5 c 0
 327.6 725.2 339.5 718.2 359.1 715.4 c 0
 404.6 707.7 454.3 715.4 493.5 693.7 c 0
 547.4 663.6 541.1 587.3 524.3 524.3 c 0
 516.6 495.6 506.1 467.6 485.8 442.4 c 0
 448.7 395.5 399 364 357 322 c 0
 338.1 302.4 329 274.4 322.7 249.2 c 2
 317.8 232.4 l 2
 316.4 226.8 315 219.1 313.6 212.1 c 0
 311.5 205.8 309.4 199.5 305.9 195.3 c 0
 293.3 179.2 262.5 172.2 245 172.2 c 2
 243.6 172.2 l 2
 228.2 172.2 230.3 191.8 233.8 204.4 c 1
 233.8 205.8 l 1
 244.3 240.1 257.6 277.2 282.8 307.3 c 0
 312.2 343 346.5 374.5 379.4 407.4 c 0
 394.8 422.8 413.7 440.3 425.6 459.2 c 0
 427 462 428.4 465.5 429.1 469 c 2
 430.5 472.5 431.2 476.7 431.9 480.2 c 0
 441.7 515.9 431.9 538.3 401.1 550.9 c 0
 371 562.8 330.4 558.6 296.8 562.8 c 0
 275.8 565.6 258.3 568.4 247.1 585.2 c 0
 231.7 609.7 233.1 648.2 242.9 683.2 c 0
 245.7 693.7 249.2 703.5 252.7 712.6 c 0
 257.6 723.1 263.9 745.5 275.1 752.5 c 0
 280.7 756.7 288.4 757.4 294.7 758.1 c 2
EndSplineSet
EndChar

StartChar: at
Encoding: 64 64 31
Width: 1055
VWidth: 699
Flags: HMW
HStem: -170.1 53.9<477.05 508.9> 54.6 50.4<763 799.4> 725.2 67.2<801.5 804.3>
LayerCount: 2
Fore
SplineSet
506.8 282.8 m 0
 507.5 284.9 508.2 287 508.2 289.1 c 1
 533.4 382.2 678.3 486.5 700 490 c 0
 714.7 494.2 728 496.3 737.8 496.3 c 0
 779.8 496.3 782.6 463.4 772.1 423.5 c 0
 761.6 382.9 737.1 335.3 723.1 305.2 c 1
 696.5 206.5 579.6 98 530.6 98 c 2
 525.7 98 l 2
 473.9 98 461.3 144.9 478.8 210.7 c 0
 484.4 233.1 494.2 257.6 506.8 282.8 c 0
823.9 -92.4004 m 1
 779.8 -109.2 737.1 -127.4 692.3 -140 c 0
 617.4 -161.7 545.3 -170.1 472.5 -170.1 c 0
 384.3 -170.1 304.5 -140.7 242.2 -93.7998 c 0
 191.1 -56.7002 154.7 -0.700195 133.7 60.2002 c 0
 110.6 129.5 110.6 211.4 132.3 293.3 c 0
 149.1 355.6 178.5 417.9 219.8 474.6 c 0
 259.7 529.2 310.1 575.4 364 617.4 c 0
 428.4 668.5 499.8 714.7 574 745.5 c 0
 650.3 777 726.6 788.9 801.5 792.4 c 0
 809.9 792.4 819 793.1 827.4 793.1 c 0
 902.3 793.1 975.1 777.7 1027.6 735.7 c 0
 1066.8 703.5 1090.6 657.3 1106 607.6 c 0
 1120 560 1126.3 508.2 1121.4 454.3 c 0
 1119.3 423.5 1112.3 392.7 1103.9 361.9 c 2
 1099.7 345.8 l 2
 1096.9 335.3 1094.1 324.8 1089.2 314.3 c 0
 1070.3 272.3 1037.4 233.1 1005.9 197.4 c 0
 982.1 169.4 956.9 140.7 928.2 117.6 c 0
 877.1 76.2998 822.5 54.5996 767.9 54.5996 c 0
 758.1 54.5996 747.6 55.2998 737.8 57.4004 c 0
 720.3 59.5 701.4 63 688.1 72.0996 c 0
 667.8 86.7998 658 109.9 648.9 133 c 1
 633.5 111.3 601.3 93.0996 578.2 81.9004 c 0
 543.2 64.4004 504 54.5996 468.3 54.5996 c 0
 436.1 54.5996 406 63 384.3 81.9004 c 0
 370.3 94.5 358.4 111.3 356.3 132.3 c 0
 354.9 158.2 362.6 189.7 370.3 217 c 2
 371 220.5 l 2
 382.9 263.2 399 305.9 424.9 345.8 c 0
 441.7 372.4 462.7 396.2 483.7 420 c 0
 510.3 450.1 540.4 479.5 574 501.9 c 0
 616 529.9 668.5 549.5 714 549.5 c 0
 749.7 549.5 781.9 536.9 800.1 506.8 c 0
 805 498.4 810.6 489.3 812.7 479.5 c 1
 824.6 494.2 830.2 515.9 837.9 532.7 c 1
 937.3 532.7 l 1
 894.6 440.3 845.6 349.3 799.4 257.6 c 2
 760.9 180.6 l 2
 756 172.2 746.9 158.2 744.1 148.4 c 0
 743.4 147 743.4 145.6 743.4 144.9 c 0
 742.7 139.3 747.6 133.7 749.7 129.5 c 0
 759.5 113.4 776.3 105 797.3 105 c 2
 799.4 105 l 2
 843.5 105.7 889.7 144.2 922.6 177.1 c 0
 983.5 236.6 1030.4 311.5 1050.7 385.7 c 0
 1057 411.6 1061.2 436.8 1060.5 462 c 0
 1060.5 497.7 1054.9 532 1043.7 564.2 c 0
 1013.6 645.4 939.4 704.9 848.4 721 c 0
 830.9 723.8 813.4 725.2 795.2 725.2 c 0
 775.6 725.2 755.3 723.8 735 722.4 c 0
 709.8 721 684.6 719.6 658.7 714 c 0
 599.9 700.7 541.1 665 489.3 627.9 c 0
 442.4 595.7 398.3 557.9 361.2 515.2 c 0
 319.2 466.2 291.2 412.3 266 357 c 0
 254.1 329 240.8 301 231.7 273 c 0
 229.6 267.4 228.2 261.8 226.8 255.5 c 0
 206.5 180.6 207.9 105.7 237.3 45.5 c 0
 291.2 -62.2998 410.2 -116.2 543.9 -116.2 c 0
 579.6 -116.2 616.7 -112 653.8 -104.3 c 0
 693.7 -96.5996 733.6 -83.2998 773.5 -66.5 c 0
 788.9 -60.2002 803.6 -51.0996 819 -44.7998 c 1
 823.9 -92.4004 l 1
EndSplineSet
EndChar

StartChar: amacron
Encoding: 257 257 32
Width: 308
VWidth: 699
Flags: HW
VStem: 30.8 225.4<400.4 540.75> 143.5 115.5 186.9 67.9
LayerCount: 2
Fore
SplineSet
198.1 818.3 m 1x40
 203 818.3 l 2
 207.9 818.3 212.8 817.6 217.7 816.9 c 0
 245.7 810.6 259.7 786.1 259.7 762.3 c 0
 259.7 735.7 243.6 708.4 212.8 704.2 c 0
 209.3 703.5 206.5 703.5 203 703.5 c 0
 189.7 703.5 175.7 707.7 165.2 716.1 c 0
 151.2 727.3 143.5 745.5 143.5 763 c 0
 143.5 777.7 149.1 791.7 159.6 802.2 c 0
 170.1 812.7 183.4 816.2 198.1 818.3 c 1x40
182 -15.4004 m 1
 182 46.2002 186.9 109.2 186.9 171.5 c 0x20
 186.9 239.4 180.6 306.6 154.7 370.3 c 0
 140 407.4 114.8 438.2 83.2998 462.7 c 0
 65.7998 476.7 35.7002 485.1 31.5 509.6 c 0
 30.7998 513.8 30.7998 518.7 30.7998 523.6 c 0x80
 30.7998 557.9 47.5996 595.7 65.7998 623 c 0
 72.0996 633.5 79.7998 647.5 91.7002 653.1 c 0
 98.7002 657.3 107.1 658.7 116.2 658.7 c 0
 135.1 658.7 155.4 651 170.1 641.9 c 0
 219.8 612.5 242.2 553 250.6 498.4 c 0
 254.8 469.7 256.2 439.6 256.2 409.5 c 0
 256.2 391.3 255.5 373.1 254.8 354.9 c 0x20
 252 287 247.8 219.8 241.5 151.9 c 0
 237.3 113.4 234.5 74.9004 231.7 37.0996 c 0
 231 26.5996 230.3 15.4004 228.9 4.90039 c 0
 228.2 1.40039 229.6 -3.5 226.8 -6.2998 c 0
 217.7 -16.7998 194.6 -13.2998 182 -15.4004 c 1
EndSplineSet
EndChar

StartChar: Abreve
Encoding: 258 258 33
Width: 0
VWidth: 699
Flags: HMW
HStem: 0.7 0.7
LayerCount: 2
Fore
SplineSet
0.700195 2.09961 m 1
 2.09961 0.700195 l 1
 0.700195 2.09961 l 1
EndSplineSet
EndChar

StartChar: abreve
Encoding: 259 259 34
Width: 0
VWidth: 699
Flags: HMW
HStem: 0.7 0.7
LayerCount: 2
Fore
SplineSet
0.700195 2.09961 m 1
 2.09961 0.700195 l 1
 0.700195 2.09961 l 1
EndSplineSet
EndChar

StartChar: bracketright
Encoding: 93 93 35
Width: 387
VWidth: 699
Flags: HMW
HStem: -207.9 48.3<-0.7 160.3 -0.7 243.6 -14 160.3> 634.9 46.9<224.7 373.1 212.1 482.3>
LayerCount: 2
Fore
SplineSet
224.7 681.8 m 1
 482.3 681.8 l 1
 243.6 -207.9 l 1
 -14 -207.9 l 1
 -0.700195 -159.6 l 1
 160.3 -159.6 l 1
 373.1 634.9 l 1
 212.1 634.9 l 1
 224.7 681.8 l 1
EndSplineSet
EndChar

StartChar: backslash
Encoding: 92 92 36
Width: 385
VWidth: 699
Flags: HW
HStem: 0 815.5<269.5 299.6 299.6 301.35 218.4 370.3 269.5 269.5>
VStem: 223.3 105.7<742.7 796.6> 269.5 100.8<0 0>
LayerCount: 2
Fore
SplineSet
218.4 815.5 m 1xc0
 299.6 815.5 l 2
 303.1 815.5 310.1 816.9 316.4 816.9 c 0
 321.3 816.9 325.5 816.2 326.9 814.1 c 0
 329.7 810.6 328.3 801.5 329 796.6 c 2xc0
 331.1 748.3 l 2
 333.9 692.3 337.4 635.6 340.2 579.6 c 0
 348.6 385.7 359.1 192.5 370.3 0 c 1
 269.5 0 l 1xa0
 272.3 24.5 266.7 49.7002 265.3 72.7998 c 2
 256.2 214.9 l 1
 231.7 606.9 l 1
 223.3 742.7 l 2
 221.2 766.5 217.7 791 218.4 815.5 c 1xc0
EndSplineSet
EndChar

StartChar: bracketleft
Encoding: 91 91 37
Width: 387
VWidth: 699
Flags: HMW
HStem: -207.9 48.3<140.7 290.5> 634.9 49.7<354.2 515.9 354.2 354.2>
LayerCount: 2
Fore
SplineSet
268.8 684.6 m 1
 529.2 684.6 l 1
 515.9 634.9 l 1
 354.2 634.9 l 1
 140.7 -159.6 l 1
 303.1 -159.6 l 1
 290.5 -207.9 l 1
 30.0996 -207.9 l 1
 268.8 684.6 l 1
EndSplineSet
EndChar

StartChar: Aogonek
Encoding: 260 260 38
Width: 538
VWidth: 699
Flags: HW
LayerCount: 2
Fore
SplineSet
18.2002 297.5 m 1
 21.7002 311.5 30.7998 326.2 36.4004 339.5 c 2
 74.9004 422.8 l 1
 183.4 662.9 l 1
 221.9 747.6 l 2
 224.7 753.9 230.3 774.2 237.3 775.6 c 0
 242.9 777 249.2 777 255.5 777 c 0
 267.4 777 279.3 775.6 290.5 775.6 c 0
 293.3 775.6 296.8 776.3 300.3 776.3 c 0
 303.8 776.3 306.6 775.6 308 774.2 c 0
 316.4 765.8 321.3 746.9 326.2 735.7 c 2
 368.9 641.9 l 1
 472.5 412.3 l 1
 506.1 339.5 l 2
 511.7 326.2 520.8 311.5 524.3 297.5 c 1
 504.7 298.2 485.1 298.2 465.5 298.2 c 0
 462.7 298.2 457.1 297.5 452.2 297.5 c 0
 448.7 297.5 445.9 298.2 443.8 299.6 c 0
 437.5 303.8 433.3 320.6 430.5 327.6 c 2
 398.3 399.7 l 1
 312.2 592.9 l 1
 284.2 655.2 l 2
 280 665 274.4 674.1 272.3 684.6 c 1
 270.2 684.6 l 1
 268.1 674.1 262.5 665 258.3 655.2 c 2
 230.3 592.9 l 1
 144.2 399.7 l 1
 112 327.6 l 2
 109.2 320.6 105 303.8 98.7002 299.6 c 0
 96.5996 298.2 93.7998 297.5 90.2998 297.5 c 0
 85.4004 297.5 79.7998 298.2 77 298.2 c 0
 57.4004 298.2 37.7998 298.2 18.2002 297.5 c 1
EndSplineSet
EndChar

StartChar: hyphen
Encoding: 45 45 39
Width: 501
VWidth: 699
Flags: HMW
HStem: 230.3 154.7<171.5 235.9 171.5 171.5 235.9 382.2 382.2 446.6 139.3 478.8>
LayerCount: 2
Fore
SplineSet
139.3 385 m 1
 382.2 385 l 1
 446.6 385 l 1
 469.7 384.3 l 1
 471.8 373.1 l 1
 473.2 343 l 1
 478.8 230.3 l 1
 235.9 230.3 l 1
 171.5 230.3 l 1
 148.4 231.7 l 1
 146.3 242.2 l 1
 144.9 271.6 l 1
 139.3 385 l 1
EndSplineSet
EndChar

StartChar: aogonek
Encoding: 261 261 40
Width: 541
VWidth: 699
Flags: HW
LayerCount: 2
Fore
SplineSet
277.9 634.9 m 1
 294 694.4 331.8 758.1 372.4 810.6 c 0
 385.7 828.1 401.8 851.9 420 865.2 c 0
 441 879.9 471.8 888.3 498.4 888.3 c 0
 517.3 888.3 534.1 884.1 544.6 875 c 0
 554.4 865.9 562.8 858.9 560.7 842.8 c 0
 560.7 839.3 560 835.8 559.3 833 c 0
 550.2 800.8 519.4 780.5 489.3 763 c 0
 454.3 742.7 417.2 721.7 385 695.8 c 0
 367.5 682.5 351.4 667.1 338.1 649.6 c 0
 335.3 646.1 329.7 639.8 328.3 634.9 c 2
 327.6 634.2 327.6 632.8 328.3 632.1 c 1
 329 630 331.1 629.3 333.9 629.3 c 0
 337.4 629.3 340.9 630 343.7 630 c 0
 360.5 630 377.3 630.7 394.1 632.8 c 0
 413.7 634.9 434.7 636.3 455 636.3 c 0
 494.2 636.3 532 630.7 560 613.9 c 0
 606.9 585.9 615.3 520.8 612.5 463.4 c 0
 611.1 428.4 604.8 391.3 595 353.5 c 0
 568.4 254.1 513.1 151.9 431.9 77 c 0
 406 52.5 372.4 26.5996 338.8 22.4004 c 2
 331.1 22.4004 l 2
 317.1 22.4004 300.3 26.5996 293.3 36.4004 c 0
 289.1 42.7002 289.8 57.4004 292.6 69.2998 c 0
 294 74.2002 295.4 78.4004 297.5 81.9004 c 0
 303.1 91 312.2 93.7998 321.3 98.7002 c 0
 335.3 105.7 348.6 113.4 362.6 121.8 c 0
 403.2 147.7 441.7 179.2 471.8 217 c 0
 499.8 251.3 520.1 290.5 530.6 329 c 0
 534.1 341.6 536.2 353.5 537.6 365.4 c 0
 540.4 395.5 535.5 424.9 514.5 442.4 c 0
 489.3 463.4 455.7 466.2 421.4 466.2 c 0
 412.3 466.2 403.9 465.5 394.8 465.5 c 0
 374.5 465.5 354.9 465.5 334.6 464.1 c 2
 331.1 464.1 l 1
 324.1 464.1 l 2
 321.3 464.1 317.8 463.4 314.3 462 c 0
 305.9 458.5 294.7 443.1 287.7 436.8 c 0
 267.4 417.2 244.3 393.4 235.9 368.2 c 2
 235.2 367.5 235.2 366.1 234.5 364.7 c 1
 231 351.4 231.7 337.4 231 324.8 c 0
 228.9 264.6 228.9 204.4 221.2 142.8 c 0
 219.1 126 217.7 105 212.1 86.0996 c 0
 210 76.2998 206.5 67.2002 201.6 59.5 c 0
 195.3 46.9004 181.3 33.5996 170.8 23.0996 c 0
 160.3 13.2998 149.8 2.7998 137.9 -5.59961 c 0
 129.5 -11.2002 121.1 -16.0996 112 -20.2998 c 0
 103.6 -23.7998 91 -29.4004 81.2002 -29.4004 c 0
 76.2998 -29.4004 72.7998 -28 70 -25.9004 c 1
 63.7002 -18.9004 66.5 0.700195 69.2998 10.5 c 0
 77 39.9004 82.5996 69.2998 90.2998 98 c 0
 102.9 144.9 114.1 191.8 126 238 c 2
 130.2 255.5 l 2
 141.4 296.8 154.7 336.7 177.8 377.3 c 0
 189 398.3 203.7 417.9 220.5 436.8 c 0
 228.9 445.9 240.8 454.3 247.8 463.4 c 1
 226.1 464.1 193.2 469.7 182 485.1 c 0
 175.7 493.5 175.7 505.4 175.7 516.6 c 0
 176.4 530.6 178.5 545.3 182 560 c 0
 185.5 571.2 189 583.1 194.6 594.3 c 0
 199.5 605.5 205.8 620.9 217 628.6 c 0
 226.1 634.9 238 636.3 249.2 636.3 c 0
 259.7 636.3 269.5 634.9 277.9 634.9 c 1
EndSplineSet
EndChar

StartChar: Cacute
Encoding: 262 262 41
Width: 465
VWidth: 699
Flags: HMW
HStem: -27.3 14.7G<59.15 71.4> 472.5 164.5<289.1 407.4 296.1 407.4>
LayerCount: 2
Fore
SplineSet
420.7 473.2 m 1
 405.3 478.1 387.8 480.2 370.3 480.2 c 0
 359.1 480.2 347.9 479.5 337.4 478.1 c 0
 324.8 476.7 312.9 473.2 300.3 472.5 c 2
 296.1 472.5 l 2
 282.1 472.5 268.8 475.3 255.5 477.4 c 0
 238.7 479.5 219.1 476 208.6 487.2 c 0
 192.5 504 193.9 529.9 201.6 557.2 c 0
 208.6 584.5 221.2 612.5 228.2 634.9 c 0
 233.8 651.7 238 679.7 254.8 693 c 0
 261.1 697.9 270.2 699.3 278.6 699.3 c 0
 287 699.3 294.7 697.9 301 697.9 c 1
 291.9 663.6 314.3 642.6 345.1 638.4 c 0
 358.4 637 372.4 637 386.4 637 c 2
 407.4 637 l 1
 422.1 637 l 2
 471.1 635.6 520.1 634.9 569.8 634.9 c 1
 557.2 597.8 535.5 558.6 513.1 524.3 c 0
 504 510.3 496.3 496.3 487.9 482.3 c 0
 483.7 475.3 476.7 466.2 474.6 458.5 c 2
 473.9 457.8 473.9 457.8 473.9 457.1 c 0
 471.8 445.2 479.5 431.9 481.6 420.7 c 0
 487.9 392.7 494.9 365.4 499.1 336.7 c 0
 502.6 310.8 501.2 282.1 493.5 254.1 c 0
 488.6 236.6 482.3 219.1 473.2 203 c 0
 455 170.8 425.6 137.9 398.3 110.6 c 0
 320.6 34.2998 212.8 -8.40039 116.9 -21.7002 c 0
 100.1 -23.7998 80.5 -27.2998 62.2998 -27.2998 c 0
 56 -27.2998 50.4004 -26.5996 44.7998 -25.9004 c 1
 37.0996 -23.7998 25.9004 -21.7002 25.9004 -12.5996 c 0
 25.2002 -0.700195 28 13.2998 31.5 27.2998 c 0
 34.2998 35.7002 36.4004 44.0996 39.9004 51.7998 c 0
 49.7002 77.7002 62.2998 120.4 90.2998 137.9 c 0
 96.5996 141.4 103.6 140.7 109.9 140.7 c 0
 121.1 141.4 133 140.7 144.2 142.1 c 0
 152.6 143.5 161 143.5 169.4 143.5 c 0
 181.3 143.5 193.2 142.8 204.4 142.8 c 0
 243.6 142.8 284.9 143.5 326.2 153.3 c 0
 343.7 157.5 375.9 163.8 389.9 179.2 c 0
 394.8 184.8 397.6 190.4 399.7 196 c 1
 401.8 205.8 400.4 215.6 397.6 224.7 c 0
 389.2 252.7 369.6 273 350.7 293.3 c 0
 345.1 298.9 331.1 308 330.4 317.1 c 0
 330.4 317.8 330.4 319.2 331.1 320.6 c 2
 331.8 324.1 333.9 327.6 335.3 330.4 c 0
 340.2 343 346.5 355.6 354.2 367.5 c 0
 376.6 401.8 403.2 436.8 420.7 473.2 c 1
EndSplineSet
EndChar

StartChar: cacute
Encoding: 263 263 42
Width: 426
VWidth: 699
Flags: HMW
HStem: 107.8 87.5<198.45 300.65>
LayerCount: 2
Fore
SplineSet
334.6 142.8 m 1
 341.6 154 345.1 164.5 348.6 175 c 0
 352.8 191.8 354.2 207.9 357 225.4 c 0
 369.6 296.1 381.5 383.6 343.7 436.8 c 0
 331.1 453.6 316.4 470.4 296.8 480.2 c 0
 280.7 489.3 256.2 494.9 253.4 516.6 c 0
 253.4 520.1 253.4 523.6 254.8 527.8 c 0
 256.9 534.8 259.7 541.8 262.5 548.1 c 0
 275.1 580.3 295.4 610.4 322.7 634.9 c 0
 331.8 643.3 348.6 659.4 361.2 660.8 c 0
 364 661.5 366.8 661.5 369.6 661.5 c 0
 415.8 661.5 447.3 623 469 592.2 c 0
 497 552.3 483.7 485.1 471.1 432.6 c 0
 446.6 332.5 420 232.4 393.4 132.3 c 2
 366.1 32.2002 l 2
 363.3 21.7002 354.9 0.700195 343.7 -4.90039 c 1
 340.9 -7 338.1 -7 336 -7 c 2
 329.7 -7 l 1
 298.9 -7 l 1
 315.7 57.4004 l 2
 317.1 63 319.9 70 322 76.2998 c 1
 322.7 80.5 323.4 84 323.4 87.5 c 0
 322.7 102.2 308.7 107.8 292.6 107.8 c 0
 278.6 107.8 262.5 102.9 252 95.9004 c 0
 213.5 68.5996 192.5 21 149.1 -1.40039 c 0
 130.9 -11.2002 112 -15.4004 93.7998 -15.4004 c 0
 71.4004 -15.4004 50.4004 -9.09961 33.5996 1.40039 c 0
 17.5 11.9004 4.2002 23.0996 6.2998 44.7998 c 1
 30.7998 52.5 55.2998 67.9004 71.4004 90.2998 c 0
 86.7998 112.7 91.7002 135.8 114.1 155.4 c 0
 123.2 163.8 133.7 171.5 144.9 177.8 c 0
 166.6 190.4 188.3 195.3 208.6 195.3 c 0
 257.6 195.3 301 166.6 334.6 142.8 c 1
EndSplineSet
EndChar

StartChar: Ccircumflex
Encoding: 264 264 43
Width: 501
VWidth: 699
Flags: HMW
HStem: 475.3 159.6<430.85 441.7>
LayerCount: 2
Fore
SplineSet
231 694.4 m 1
 274.4 694.4 l 1
 273 674.8 277.9 648.2 294.7 639.8 c 0
 305.9 634.9 319.9 633.5 334.6 633.5 c 0
 348.6 633.5 363.3 634.9 375.9 634.9 c 2
 544.6 634.9 l 1
 613.2 634.9 l 1
 623.7 634.9 l 2
 631.4 634.9 637 633.5 638.4 624.4 c 0
 639.8 611.8 639.1 598.5 635.6 585.2 c 0
 628.6 560 613.9 534.8 594.3 514.5 c 0
 581.7 501.2 564.2 497 555.8 480.2 c 1
 554.4 476 552.3 471.8 551.6 466.9 c 0
 548.1 454.3 546.7 441 543.9 429.1 c 2
 543.2 427 l 2
 535.5 400.4 523.6 373.1 511.7 347.2 c 0
 475.3 264.6 425.6 184.1 387.1 102.2 c 0
 373.8 73.5 357.7 44.7998 341.6 17.5 c 0
 334.6 6.2998 327.6 -9.09961 317.1 -18.2002 c 0
 310.1 -25.2002 296.1 -28.7002 284.9 -28.7002 c 0
 279.3 -28.7002 275.1 -28 272.3 -26.5996 c 0
 263.9 -22.4004 257.6 -14.7002 251.3 -8.40039 c 0
 233.8 10.5 209.3 38.5 217.7 70.7002 c 1
 218.4 72.0996 l 1
 229.6 112.7 263.2 151.9 291.9 186.9 c 2
 429.1 359.8 l 2
 450.1 386.4 482.3 416.5 490 447.3 c 0
 491.4 450.8 492.8 455 494.2 459.9 c 0
 494.9 462.7 495.6 465.5 494.9 467.6 c 0
 494.2 472.5 480.9 471.8 476.7 472.5 c 0
 463.4 473.9 448.7 475.3 434.7 475.3 c 0
 427 475.3 419.3 474.6 411.6 473.9 c 0
 398.3 472.5 385.7 473.2 372.4 472.5 c 0
 337.4 470.4 303.1 468.3 268.1 466.9 c 0
 261.8 466.2 254.8 466.2 248.5 466.2 c 0
 223.3 466.2 197.4 469 182 483 c 0
 166.6 496.3 171.5 524.3 176.4 545.3 c 0
 177.1 550.2 178.5 555.1 179.9 559.3 c 0
 191.8 604.8 212.8 648.9 231 694.4 c 1
EndSplineSet
EndChar

StartChar: ccircumflex
Encoding: 265 265 44
Width: 580
VWidth: 699
Flags: HMW
HStem: 466.2 163.1<371 440.65>
LayerCount: 2
Fore
SplineSet
200.2 354.9 m 1
 190.4 304.5 194.6 248.5 222.6 214.2 c 0
 233.8 200.2 250.6 190.4 266 181.3 c 0
 290.5 166.6 331.1 165.2 346.5 140 c 0
 352.8 129.5 349.3 116.2 346.5 102.9 c 0
 343.7 88.2002 340.2 72.7998 336.7 58.0996 c 0
 332.5 42 326.9 26.5996 319.9 11.9004 c 0
 315 0.700195 305.9 -17.5 294.7 -24.5 c 0
 289.1 -28 280.7 -28 275.1 -28.7002 c 0
 270.9 -28.7002 266 -29.4004 261.8 -29.4004 c 0
 247.1 -29.4004 233.1 -26.5996 220.5 -21.7002 c 0
 196 -11.2002 170.1 4.90039 153.3 25.2002 c 0
 112 76.2998 107.1 154 119.7 226.8 c 0
 122.5 240.8 125.3 254.8 128.8 268.8 c 0
 134.4 287.7 140 305.9 147.7 323.4 c 0
 150.5 330.4 155.4 350 161.7 354.2 c 0
 163.1 354.9 165.2 354.9 167.3 354.9 c 2
 172.9 354.9 l 1
 200.2 354.9 l 1
252 690.2 m 0
 254.8 692.3 259.7 691.6 263.2 691.6 c 2
 275.1 691.6 l 2
 282.1 691.6 289.1 690.9 292.6 686 c 0
 297.5 679.7 292.6 671.3 295.4 664.3 c 0
 302.4 644 319.2 633.5 340.9 631.4 c 0
 352.8 630 364.7 629.3 377.3 629.3 c 0
 411.6 629.3 447.3 632.8 480.9 632.8 c 0
 529.9 632.8 575.4 626.5 608.3 594.3 c 0
 632.8 570.5 639.8 533.4 644 497.7 c 0
 648.9 445.9 641.9 389.2 627.2 333.2 c 0
 617.4 297.5 604.8 261.8 590.1 227.5 c 0
 578.2 200.2 564.9 173.6 550.2 147 c 0
 541.8 131.6 534.8 117.6 517.3 109.2 c 0
 511 106.4 504.7 105 497.7 105 c 0
 482.3 105 467.6 112 462 122.5 c 0
 459.2 128.8 459.2 137.2 461.3 144.9 c 0
 462 149.1 464.1 152.6 465.5 156.8 c 1
 476 177.1 496.3 196.7 511.7 214.9 c 0
 529.2 235.9 543.9 259 554.4 282.8 c 0
 560.7 296.1 565.6 310.1 569.8 324.1 c 0
 571.9 333.2 574 342.3 574.7 350.7 c 0
 576.1 363.3 576.1 376.6 574 387.8 c 0
 557.2 458.5 477.4 466.2 403.9 466.2 c 0
 386.4 466.2 368.2 465.5 352.1 465.5 c 0
 333.2 465.5 314.3 464.8 295.4 464.8 c 0
 286.3 464.8 277.2 464.1 268.1 464.1 c 0
 247.1 464.1 226.1 466.2 210 476 c 0
 187.6 489.3 187.6 511 191.8 538.3 c 0
 193.2 548.8 195.3 558.6 198.1 568.4 c 0
 204.4 591.5 213.5 615.3 224 637.7 c 0
 229.6 651 235.9 663.6 242.9 676.9 c 0
 245 680.4 247.8 687.4 252 690.2 c 0
EndSplineSet
EndChar

StartChar: Cdotaccent
Encoding: 266 266 45
Width: 308
VWidth: 699
Flags: HMW
HStem: 641.9 14G<279.65 287.35>
VStem: 159.6 217.7
LayerCount: 2
Fore
SplineSet
168 -16.7998 m 1
 184.1 46.2002 207.2 110.6 224.7 174.3 c 0
 241.5 238 252.7 301 246.4 361.9 c 0
 242.2 401.1 225.4 434 200.2 459.9 c 0
 185.5 476 154.7 485.1 159.6 512.4 c 0
 160.3 514.5 161 517.3 161.7 520.1 c 0
 170.8 555.1 200.9 595 226.8 623 c 0
 240.1 637.7 252.7 651 271.6 654.5 c 0
 275.1 655.2 277.9 655.9 281.4 655.9 c 0
 293.3 655.9 303.8 651 313.6 645.4 c 0
 341.6 630 365.4 604.8 374.5 573.3 c 0
 379.4 557.2 378.7 536.2 377.3 517.3 c 0
 375.2 485.1 368.9 452.2 359.8 420 c 0
 357.7 410.2 354.9 400.4 351.4 390.6 c 0
 323.4 301 300.3 210.7 267.4 120.4 c 0
 256.2 89.5996 247.8 58.7998 235.2 28 c 0
 231 18.9004 226.1 0 218.4 -7 c 0
 207.9 -15.4004 191.1 -16.7998 177.8 -16.7998 c 2
 168 -16.7998 l 1
EndSplineSet
EndChar

StartChar: cdotaccent
Encoding: 267 267 46
Width: 270
VWidth: 699
Flags: HMW
HStem: -26.6 14.7G<87.5 98.7 87.5 87.5>
VStem: 76.3 308
LayerCount: 2
Fore
SplineSet
373.1 651.7 m 2
 386.4 651.7 383.6 628.6 384.3 619.5 c 0
 385.7 591.5 392 560 384.3 529.9 c 0
 382.2 523.6 380.1 517.3 377.3 511.7 c 0
 359.8 475.3 323.4 451.5 292.6 425.6 c 0
 277.2 413 261.1 399.7 252 382.2 c 0
 249.9 378 248.5 373.8 247.8 370.3 c 0
 242.9 353.5 246.4 338.8 247.1 322.7 c 0
 247.8 304.5 245.7 284.9 242.9 265.3 c 0
 240.1 247.8 236.6 229.6 231.7 211.4 c 0
 219.1 166.6 201.6 121.1 184.8 75.5996 c 0
 175.7 52.5 167.3 32.9004 152.6 10.5 c 0
 144.9 -2.09961 133.7 -16.7998 119 -23.0996 c 0
 112.7 -25.9004 105.7 -26.5996 98.7002 -26.5996 c 2
 87.5 -26.5996 l 1
 84 -25.9004 77.7002 -25.9004 76.2998 -23.0996 c 0
 75.5996 -21.7002 76.2998 -19.5996 77 -17.5 c 0
 77.7002 -14.7002 79.0996 -11.9004 79.7998 -9.7998 c 0
 83.2998 -0.700195 85.4004 9.09961 89.5996 18.2002 c 0
 107.8 65.7998 122.5 116.2 135.1 164.5 c 0
 156.8 242.9 177.1 320.6 182 398.3 c 0
 184.1 429.8 182.7 459.2 183.4 490 c 0
 183.4 504.7 184.1 520.1 188.3 534.8 c 0
 189.7 540.4 191.1 545.3 193.9 550.2 c 0
 203 571.2 221.9 583.1 240.1 595.7 c 0
 280 624.4 325.5 651.7 370.3 651.7 c 2
 373.1 651.7 l 2
EndSplineSet
EndChar

StartChar: Ccaron
Encoding: 268 268 47
Width: 541
VWidth: 699
Flags: HMW
HStem: 468.3 166.6
LayerCount: 2
Fore
SplineSet
237.3 460.6 m 1
 219.1 464.1 196 480.9 193.2 498.4 c 0
 191.8 507.5 196 518.7 197.4 527.8 c 2
 203.7 555.8 l 2
 210 578.9 218.4 602 226.8 625.1 c 0
 233.1 642.6 240.8 660.1 247.8 677.6 c 0
 249.2 681.8 252 692.3 256.9 693.7 c 0
 260.4 695.1 264.6 695.1 268.8 695.1 c 0
 275.8 695.1 282.8 694.4 289.1 694.4 c 0
 291.9 694.4 297.5 695.1 299.6 693 c 0
 305.2 688.1 303.8 671.3 306.6 664.3 c 0
 312.2 648.2 326.2 644 343 640.5 c 0
 362.6 636.3 383.6 635.6 405.3 635.6 c 0
 427 635.6 449.4 636.3 471.1 636.3 c 0
 488.6 636.3 506.1 635.6 522.9 633.5 c 0
 547.4 629.3 574.7 622.3 590.1 604.8 c 0
 613.9 576.1 619.5 528.5 620.2 487.9 c 0
 620.9 443.1 614.6 394.8 602 345.8 c 0
 583.8 278.6 552.3 210.7 508.9 151.9 c 0
 473.2 102.9 429.1 53.2002 371.7 32.2002 c 0
 356.3 27.2998 340.9 24.5 326.2 23.0996 c 0
 322.7 23.0996 319.9 22.4004 316.4 22.4004 c 0
 313.6 22.4004 310.8 23.0996 308.7 24.5 c 0
 302.4 28.7002 301 36.4004 298.2 43.4004 c 0
 296.1 50.4004 294.7 55.2998 296.8 61.5996 c 2
 296.8 63 297.5 65.0996 298.9 67.2002 c 0
 314.3 101.5 356.3 112 386.4 128.8 c 0
 420 147 452.2 176.4 476 205.8 c 0
 506.1 243.6 527.8 287 539 329.7 c 0
 541.1 338.8 543.2 347.9 544.6 357 c 0
 549.5 385 550.9 410.9 536.9 432.6 c 0
 525 450.1 504 458.5 483 462.7 c 0
 462.7 466.9 441.7 468.3 420 468.3 c 0
 398.3 468.3 375.9 466.9 354.2 465.5 c 2
 344.4 465.5 l 2
 334.6 465.5 324.8 466.2 314.3 466.9 c 0
 311.5 466.9 307.3 468.3 303.1 468.3 c 0
 301.7 468.3 301 468.3 299.6 467.6 c 1
 293.3 466.2 284.9 447.3 282.1 442.4 c 0
 268.8 422.1 256.2 401.8 250.6 380.1 c 0
 248.5 373.1 247.8 366.1 247.8 358.4 c 0
 247.8 329.7 240.8 298.2 239.4 269.5 c 0
 236.6 224 236.6 177.8 229.6 132.3 c 0
 228.2 117.6 226.8 99.4004 222.6 83.2998 c 0
 220.5 76.2998 218.4 70 214.9 64.4004 c 0
 210 55.2998 201.6 46.2002 194.6 39.2002 c 0
 170.8 12.5996 140 -13.2998 107.1 -24.5 c 0
 100.8 -26.5996 92.4004 -29.4004 85.4004 -29.4004 c 0
 84 -29.4004 82.5996 -28.7002 81.9004 -28.7002 c 0
 70 -26.5996 61.5996 -9.09961 62.2998 2.7998 c 0
 62.2998 4.2002 63 6.2998 63 7.7002 c 1
 64.4004 11.9004 66.5 16.0996 67.9004 20.2998 c 0
 71.4004 32.9004 74.2002 45.5 78.4004 58.0996 c 0
 88.9004 88.9004 95.9004 119 106.4 149.8 c 2
 154.7 301.7 l 2
 163.1 327.6 170.8 355.6 183.4 380.8 c 0
 196.7 408.8 219.1 434.7 237.3 460.6 c 1
EndSplineSet
EndChar

StartChar: ccaron
Encoding: 269 269 48
Width: 619
VWidth: 699
Flags: HMW
HStem: -23.8 165.2<295.4 393.05>
LayerCount: 2
Fore
SplineSet
398.3 462.7 m 1
 395.5 471.8 392.7 490.7 396.2 503.3 c 0
 396.9 505.4 397.6 506.8 398.3 508.2 c 0
 403.9 520.1 424.9 534.1 434.7 543.2 c 2
 524.3 627.2 l 1
 563.5 662.9 l 2
 567.7 667.1 574 674.8 579.6 676.2 c 1
 581 676.9 582.4 676.9 583.8 676.9 c 0
 589.4 676.9 595.7 674.8 600.6 673.4 c 0
 620.2 669.2 638.4 659.4 650.3 644.7 c 0
 672 616.7 680.4 578.2 690.2 543.2 c 0
 693.7 530.6 698.6 517.3 699.3 503.3 c 0
 700.7 471.1 694.4 433.3 688.8 399.7 c 0
 685.3 379.4 680.4 357.7 674.8 336.7 c 0
 646.8 231.7 590.1 121.8 494.9 46.9004 c 0
 476 31.5 456.4 16.7998 435.4 6.2998 c 0
 392 -16.0996 345.1 -23.7998 301.7 -23.7998 c 0
 289.1 -23.7998 277.2 -23.0996 265.3 -22.4004 c 0
 249.9 -21 235.9 -17.5 221.9 -12.5996 c 0
 218.4 -11.9004 211.4 -7 205.8 -7 c 2
 204.4 -7 l 1
 195.3 -9.7998 188.3 -25.9004 185.5 -32.9004 c 0
 178.5 -48.2998 172.9 -62.2998 164.5 -77.7002 c 0
 161 -85.4004 156.1 -95.2002 148.4 -100.8 c 0
 146.3 -102.2 144.2 -102.9 141.4 -102.9 c 0
 139.3 -102.9 136.5 -102.2 133.7 -102.2 c 0
 121.8 -100.8 110.6 -98.7002 98 -98 c 1
 140 -18.2002 172.2 65.0996 198.1 147.7 c 0
 202.3 161.7 206.5 175.7 210 189 c 0
 226.8 250.6 236.6 311.5 235.9 370.3 c 0
 235.2 393.4 235.2 419.3 228.2 440.3 c 0
 222.6 458.5 210.7 473.9 200.9 490 c 0
 194.6 500.5 186.9 511 179.2 520.8 c 0
 176.4 525 170.8 529.9 170.1 535.5 c 0
 170.1 536.9 170.8 538.3 170.8 539.7 c 1
 171.5 542.5 173.6 546.7 174.3 549.5 c 0
 184.8 578.2 207.2 603.4 228.9 627.2 c 0
 238 637 247.1 648.2 257.6 655.9 c 0
 268.8 665 284.9 672.7 298.2 672.7 c 0
 302.4 672.7 306.6 672 310.8 669.9 c 0
 317.1 666.4 319.2 655.2 320.6 648.2 c 0
 326.2 630 329.7 611.1 331.1 590.8 c 0
 335.3 523.6 329 450.8 315 380.1 c 0
 299.6 304.5 277.9 228.9 263.9 153.3 c 1
 284.2 151.9 303.1 146.3 323.4 144.2 c 0
 338.8 142.1 354.9 141.4 371 141.4 c 0
 415.1 141.4 462 149.1 505.4 177.1 c 0
 562.1 212.8 602.7 270.2 618.1 327.6 c 0
 631.4 378 625.1 428.4 592.2 462 c 0
 582.4 472.5 570.5 480.9 556.5 487.2 c 0
 543.2 492.8 527.8 497 512.4 497 c 2
 511 497 l 2
 473.9 496.3 435.4 476.7 398.3 462.7 c 1
EndSplineSet
EndChar

StartChar: Dcaron
Encoding: 270 270 49
Width: 270
VWidth: 699
Flags: HMW
VStem: 168.7 228.2
LayerCount: 2
Fore
SplineSet
281.4 688.1 m 1
 282.1 687.4 l 1
 281.4 688.1 l 1
237.3 681.8 m 1
 281.4 687.4 l 1
 280 683.2 277.9 679.7 276.5 675.5 c 1
 276.5 674.8 275.8 673.4 275.8 672.7 c 0
 275.1 664.3 274.4 651.7 277.2 644.7 c 0
 290.5 611.8 336.7 604.1 364 586.6 c 0
 384.3 573.3 399 551.6 396.9 524.3 c 0
 396.2 518 394.8 512.4 393.4 506.1 c 0
 391.3 499.1 388.5 491.4 386.4 484.4 c 0
 361.9 412.3 315.7 343 255.5 287 c 0
 242.9 274.4 228.9 262.5 214.9 252 c 0
 208.6 246.4 201.6 241.5 194.6 241.5 c 0
 192.5 241.5 190.4 241.5 188.3 242.9 c 0
 183.4 245 180.6 252.7 177.8 256.9 c 0
 175 260.4 170.1 265.3 170.1 270.2 c 2
 170.1 271.6 l 1
 170.8 275.8 177.8 279.3 180.6 282.1 c 1
 191.8 290.5 202.3 300.3 212.8 310.1 c 0
 238 333.2 272.3 367.5 281.4 401.1 c 0
 283.5 408.8 284.2 416.5 282.8 424.2 c 0
 282.1 434 262.5 441 254.8 445.2 c 0
 228.2 457.8 198.1 467.6 178.5 488.6 c 0
 162.4 506.1 161.7 530.6 168.7 556.5 c 0
 177.1 587.3 196 620.2 212.8 645.4 c 0
 220.5 657.3 230.3 669.2 237.3 681.8 c 1
EndSplineSet
EndChar

StartChar: dcaron
Encoding: 271 271 50
Width: 465
VWidth: 699
Flags: HMW
HStem: 468.3 159.6<266.7 362.6 362.6 362.6 362.6 376.95 362.6 461.3>
LayerCount: 2
Fore
SplineSet
461.3 468.3 m 1
 272.3 468.3 l 2
 261.1 468.3 248.5 467.6 236.6 467.6 c 0
 217.7 467.6 199.5 469.7 186.2 480.9 c 0
 162.4 499.8 168.7 525 177.1 556.5 c 1
 177.8 557.9 l 1
 184.8 583.1 191.8 607.6 201.6 632.8 c 2
 216.3 670.6 l 2
 218.4 674.8 219.8 682.5 223.3 686 c 0
 226.8 688.8 233.8 688.1 237.3 688.8 c 0
 249.2 690.2 261.8 691.6 274.4 694.4 c 1
 267.4 640.5 317.1 627.9 362.6 627.9 c 1
 362.6 627.9 l 1
 391.3 627.9 424.2 633.5 455 633.5 c 0
 486.5 633.5 515.2 627.9 532.7 605.5 c 0
 539 597.8 542.5 588 545.3 578.2 c 0
 548.8 567 548.8 553.7 548.1 540.4 c 0
 546.7 529.9 545.3 519.4 542.5 508.9 c 0
 523.6 440.3 470.4 373.1 451.5 303.8 c 2
 449.4 295.4 l 2
 437.5 240.1 430.5 185.5 422.8 130.2 c 0
 414.4 74.9004 405.3 18.9004 397.6 -37.0996 c 0
 392.7 -74.2002 387.1 -110.6 380.8 -147.7 c 0
 378 -163.1 375.9 -178.5 372.4 -193.2 c 2
 370.3 -199.5 l 2
 357 -242.2 328.3 -280 290.5 -310.1 c 0
 266 -329 244.3 -341.6 217.7 -341.6 c 2
 213.5 -341.6 l 2
 198.8 -340.9 202.3 -309.4 204.4 -297.5 c 0
 205.8 -290.5 207.2 -283.5 209.3 -277.2 c 0
 212.1 -264.6 216.3 -251.3 219.8 -239.4 c 2
 243.6 -147 l 1
 310.8 107.8 l 1
 315 123.9 l 2
 337.4 207.9 360.5 291.2 402.5 374.5 c 0
 419.3 407.4 439.6 437.5 461.3 468.3 c 1
EndSplineSet
EndChar

StartChar: Dcroat
Encoding: 272 272 51
Width: 465
VWidth: 699
Flags: HMW
HStem: 476 167.3<352.45 362.25>
LayerCount: 2
Fore
SplineSet
266.7 708.4 m 2
 268.8 708.4 272.3 709.1 273 707 c 1
 274.4 704.9 272.3 698.6 272.3 695.1 c 0
 271.6 688.1 271.6 680.4 273.7 673.4 c 0
 278.6 658.7 297.5 651.7 312.9 648.2 c 0
 327.6 644 344.4 643.3 360.5 643.3 c 0
 373.8 643.3 386.4 644 399 644 c 0
 422.8 644 445.9 642.6 465.5 633.5 c 0
 487.9 623 505.4 602.7 515.9 581.7 c 0
 541.8 530.6 534.8 464.8 522.2 402.5 c 0
 519.4 390.6 517.3 379.4 513.8 367.5 c 0
 490 279.3 443.8 192.5 373.1 118.3 c 0
 369.6 114.8 367.5 110.6 364 107.1 c 0
 301.7 47.5996 219.8 9.7998 143.5 -6.2998 c 0
 118.3 -11.2002 93.0996 -14 68.5996 -15.4004 c 0
 61.5996 -16.0996 54.5996 -16.7998 47.5996 -16.7998 c 2
 39.2002 -16.7998 l 1
 25.2002 -14 31.5 13.2998 33.5996 24.5 c 0
 35 33.5996 35 44.0996 37.0996 53.9004 c 1
 37.7998 54.5996 l 1
 42 70.7002 51.7998 88.9004 57.4004 105.7 c 0
 63 121.8 69.2998 138.6 85.4004 149.1 c 0
 102.9 160.3 124.6 158.2 142.1 159.6 c 0
 177.1 161.7 212.8 165.9 248.5 172.2 c 0
 301 182.7 358.4 206.5 399 249.9 c 0
 410.2 261.8 420.7 275.1 428.4 288.4 c 0
 435.4 301 439.6 313.6 444.5 325.5 c 0
 446.6 331.8 448.7 338.8 450.8 345.8 c 0
 463.4 392.7 461.3 445.9 419.3 464.8 c 0
 398.3 473.9 374.5 476 350 476 c 0
 322 476 292.6 472.5 263.9 472.5 c 0
 257.6 472.5 250.6 473.2 244.3 473.2 c 0
 221.2 475.3 187.6 477.4 172.9 493.5 c 0
 163.8 503.3 161.7 522.2 162.4 537.6 c 0
 163.1 548.8 165.2 560 168.7 571.2 c 0
 175 596.4 186.9 622.3 196 647.5 c 0
 200.9 661.5 205.1 672.7 213.5 686.7 c 0
 216.3 690.9 218.4 697.2 222.6 700.7 c 0
 226.1 703.5 231.7 703.5 235.2 704.2 c 2
 266.7 708.4 l 2
EndSplineSet
EndChar

StartChar: dcroat
Encoding: 273 273 52
Width: 387
VWidth: 699
Flags: HW
LayerCount: 2
Fore
SplineSet
316.4 652.4 m 1
 336 650.3 359.1 638.4 373.8 628.6 c 0
 415.8 598.5 440.3 546 447.3 492.1 c 0
 452.9 452.2 444.5 411.6 435.4 369.6 c 0
 434 362.6 431.9 355.6 430.5 348.6 c 0
 401.8 242.2 338.1 136.5 247.8 54.5996 c 0
 232.4 40.5996 216.3 25.9004 199.5 15.4004 c 0
 170.8 -3.5 136.5 -17.5 105 -28 c 0
 86.7998 -34.2998 64.4004 -39.9004 44.7998 -39.9004 c 0
 41.2998 -39.9004 37.0996 -39.2002 33.5996 -39.2002 c 1
 18.2002 -36.4004 21 -11.9004 23.0996 0 c 0
 23.7998 5.59961 24.5 11.2002 26.5996 16.7998 c 0
 32.2002 38.5 43.4004 61.5996 52.5 82.5996 c 0
 58.7998 97.2998 63.7002 112 74.9004 125.3 c 0
 86.7998 140 102.9 142.8 119 145.6 c 0
 140.7 149.8 163.1 154 185.5 159.6 c 0
 208.6 165.9 232.4 172.2 254.1 183.4 c 0
 303.1 209.3 340.9 257.6 359.8 305.2 c 1
 360.5 308.7 361.9 311.5 362.6 315 c 0
 364.7 322 366.1 329.7 366.8 336.7 c 0
 373.8 405.3 319.2 431.9 269.5 457.8 c 0
 254.8 464.8 240.8 472.5 227.5 481.6 c 0
 221.9 485.1 214.9 488.6 212.8 494.9 c 0
 209.3 506.1 210.7 518 214.2 531.3 c 0
 218.4 548.1 226.8 565.6 231.7 581.7 c 0
 246.4 629.3 258.3 678.3 273.7 725.9 c 0
 279.3 742 286.3 758.1 290.5 774.2 c 0
 292.6 781.9 294 789.6 294.7 796.6 c 0
 296.8 825.3 279.3 845.6 263.2 863.8 c 0
 257.6 870.1 239.4 884.1 241.5 895.3 c 0
 242.2 897.4 242.9 900.2 243.6 903 c 0
 249.2 924.7 261.8 948.5 273.7 968.1 c 0
 277.2 974.4 281.4 986.3 287.7 990.5 c 0
 297.5 997.5 307.3 1000.3 316.4 1000.3 c 0
 339.5 1000.3 360.5 983.5 376.6 974.4 c 0
 385.7 968.8 394.1 963.9 402.5 957.6 c 0
 410.2 950.6 420.7 942.2 422.8 931 c 0
 423.5 927.5 422.8 923.3 421.4 917.7 c 0
 417.9 905.8 410.9 890.4 408.1 882.7 c 0
 401.8 868 402.5 866.6 396.2 851.2 c 2
 316.4 652.4 l 1
EndSplineSet
EndChar

StartChar: Emacron
Encoding: 274 274 53
Width: 580
VWidth: 699
Flags: HW
LayerCount: 2
Fore
SplineSet
256.9 694.4 m 1
 301.7 697.9 l 1
 298.9 699.3 259.7 690.9 256.9 694.4 c 1
256.9 694.4 m 1
 226.1 623.7 l 1
 256.9 694.4 l 1
316.4 462 m 0
 284.9 447.3 256.9 420.7 240.8 390.6 c 2
 212.8 325.5 l 1
 197.4 262.5 l 1
 212.8 210 l 1
 215.6 206.5 217.7 203 220.5 199.5 c 0
 226.1 193.2 231 186.9 235.2 180.6 c 0
 238 176.4 240.8 172.9 244.3 170.1 c 0
 247.8 168 251.3 166.6 254.8 165.2 c 0
 261.1 163.1 266.7 159.6 272.3 156.1 c 0
 275.1 154 277.9 152.6 281.4 151.2 c 1
 344.4 142.8 l 1
 387.8 140.7 l 1
 443.8 161.7 l 1
 503.3 195.3 l 1
 546 237.3 l 1
 578.2 294 l 1
 593.6 367.5 l 1
 586.6 413.7 l 1
 564.2 453.6 l 1
 522.9 464.1 l 1
 459.2 470.4 l 1
 406.7 470.4 l 1
 380.1 479.5 347.2 476 316.4 462 c 0
256.9 694.4 m 1
 301.7 697.9 l 1
 292.6 662.9 315 644 346.5 639.8 c 0
 381.5 635.6 419.3 633.5 455.7 634.2 c 0
 478.8 634.2 503.3 636.3 525.7 634.9 c 0
 552.3 632.8 583.8 630 604.8 617.4 c 0
 625.8 603.4 637 582.4 644.7 559.3 c 0
 658 520.1 661.5 476.7 658 431.9 c 0
 651.7 366.8 632.1 297.5 603.4 232.4 c 0
 567.7 149.8 512.4 66.5 430.5 14 c 0
 346.5 -39.9004 236.6 -45.5 171.5 -2.7998 c 0
 140 17.5 118.3 51.0996 107.8 87.5 c 0
 91.7002 140 98 200.9 111.3 260.4 c 0
 121.8 305.9 146.3 359.8 179.2 399.7 c 0
 198.8 424.2 224 444.5 245 468.3 c 1
 234.5 470.4 225.4 473.2 217 478.8 c 0
 188.3 495.6 188.3 532.7 202.3 567 c 0
 219.8 609 242.2 651.7 256.9 694.4 c 1
EndSplineSet
EndChar

StartChar: emacron
Encoding: 275 275 54
Width: 619
VWidth: 699
Flags: HMW
HStem: 471.8 186.2<461.3 595.35>
LayerCount: 2
Fore
SplineSet
538.3 656.6 m 0
 545.3 657.3 551.6 658 557.2 658 c 0
 633.5 658 674.1 595.7 683.2 527.8 c 0
 690.2 474.6 682.5 417.2 667.1 359.1 c 0
 658.7 326.9 647.5 294 634.2 262.5 c 0
 612.5 207.9 585.9 155.4 546 107.1 c 0
 510.3 63.7002 466.9 25.2002 417.2 0.700195 c 0
 397.6 -9.09961 374.5 -18.9004 354.2 -18.9004 c 0
 352.1 -18.9004 350 -18.2002 347.9 -18.2002 c 0
 336.7 -17.5 319.2 -16.7998 312.2 -8.40039 c 0
 302.4 2.7998 308.7 25.9004 311.5 40.5996 c 0
 312.2 44.7998 312.2 49.7002 313.6 53.9004 c 0
 314.3 56.7002 315 58.7998 316.4 61.5996 c 0
 319.2 65.7998 324.1 70 328.3 74.2002 c 0
 349.3 91.7002 373.8 98.7002 398.3 107.1 c 0
 431.9 118.3 463.4 128.8 494.2 151.2 c 0
 546 187.6 576.1 240.8 590.1 294.7 c 2
 591.5 298.2 l 2
 595.7 313.6 599.2 329 599.2 343 c 0
 599.2 366.1 592.2 389.2 583.1 408.1 c 0
 572.6 429.1 560.7 450.1 538.3 459.9 c 0
 518.7 468.3 497 471.8 473.9 471.8 c 0
 448.7 471.8 421.4 466.9 394.8 458.5 c 0
 383.6 454.3 372.4 450.1 361.2 445.2 c 0
 357.7 443.1 351.4 441 348.6 438.2 c 0
 347.2 436.1 346.5 433.3 345.1 430.5 c 1
 343.7 423.5 343 413.7 341.6 408.1 c 0
 334.6 381.5 327.6 354.9 319.2 328.3 c 0
 296.1 254.8 266.7 178.5 224 107.8 c 0
 201.6 70.7002 176.4 30.7998 142.8 0 c 0
 128.8 -13.2998 108.5 -28 91 -31.5 c 0
 87.5 -32.2002 84 -32.2002 81.2002 -32.2002 c 0
 71.4004 -32.2002 62.2998 -30.0996 54.5996 -28 c 0
 42.7002 -24.5 28.7002 -16.7998 25.9004 -4.2002 c 0
 25.2002 2.09961 26.5996 9.7998 28.7002 16.7998 c 2
 31.5 26.5996 l 1
 32.2002 30.7998 l 1
 34.2998 37.0996 36.4004 44.7998 41.2998 50.4004 c 0
 53.9004 64.4004 73.5 74.9004 88.2002 85.4004 c 0
 112 102.9 135.8 121.8 157.5 142.1 c 0
 201.6 182.7 228.9 242.9 243.6 296.8 c 0
 247.1 310.1 249.9 322.7 252 334.6 c 0
 259 378 256.2 421.4 234.5 454.3 c 0
 224.7 469 212.1 482.3 200.9 497 c 0
 194.6 505.4 186.2 515.9 186.9 529.2 c 0
 186.9 529.9 187.6 531.3 187.6 532.7 c 1
 189.7 539 193.9 546.7 197.4 552.3 c 0
 208.6 574 224 595 241.5 613.2 c 0
 252.7 625.1 266 639.8 279.3 648.2 c 0
 287 652.4 294.7 654.5 301.7 654.5 c 0
 313.6 654.5 324.1 648.2 331.1 640.5 c 0
 352.1 616.7 356.3 583.1 359.1 549.5 c 0
 359.8 534.8 359.8 519.4 360.5 504.7 c 0
 360.5 501.2 359.1 492.1 363.3 492.1 c 0
 364 492.1 364.7 492.1 365.4 492.8 c 2
 369.6 494.2 373.8 501.2 376.6 504.7 c 2
 406 540.4 l 2
 429.8 569.8 454.3 599.9 483 625.8 c 0
 492.1 634.9 504.7 648.9 516.6 653.8 c 0
 523.6 657.3 531.3 655.9 538.3 656.6 c 0
EndSplineSet
EndChar

StartChar: Ebreve
Encoding: 276 276 55
Width: 308
VWidth: 699
Flags: HW
LayerCount: 2
Fore
SplineSet
299.6 436.8 m 1
 284.9 443.8 270.2 452.9 255.5 461.3 c 0
 230.3 474.6 199.5 489.3 191.1 519.4 c 0
 186.2 535.5 189.7 550.9 193.2 568.4 c 0
 194.6 575.4 196 581.7 198.1 588.7 c 0
 204.4 613.9 214.2 639.1 226.8 662.9 c 0
 232.4 674.1 238.7 684.6 245.7 695.1 c 0
 248.5 698.6 251.3 704.2 254.8 707 c 1
 259 709.1 264.6 708.4 268.8 709.1 c 0
 280 710.5 290.5 711.9 301.7 711.9 c 1
 294.7 659.4 354.2 641.2 380.1 610.4 c 0
 388.5 601.3 398.3 588 398.3 573.3 c 0
 397.6 560.7 395.5 546.7 391.3 532.7 c 0
 383.6 504 371 474.6 359.1 448 c 0
 329 382.2 291.9 315.7 270.9 249.2 c 0
 269.5 243.6 268.1 238.7 266.7 233.8 c 0
 261.8 215.6 258.3 197.4 256.2 179.9 c 0
 254.8 165.2 255.5 151.9 253.4 137.2 c 0
 241.5 63.7002 231.7 -9.09961 219.8 -82.5996 c 0
 214.2 -117.6 212.1 -152.6 204.4 -187.6 c 1
 203.7 -189 203.7 -191.1 203 -192.5 c 2
 192.5 -233.1 158.9 -271.6 123.9 -299.6 c 0
 112.7 -308.7 99.4004 -319.2 86.0996 -324.8 c 0
 74.2002 -330.4 59.5 -331.8 48.2998 -331.8 c 2
 44.0996 -331.8 l 2
 40.5996 -331.8 37.7998 -331.1 35.7002 -328.3 c 0
 30.0996 -319.2 34.2998 -301 37.7998 -286.3 c 2
 41.2998 -275.1 l 1
 74.9004 -145.6 l 1
 144.2 113.4 l 1
 163.1 189 l 2
 170.8 217 179.2 244.3 191.8 272.3 c 0
 219.1 331.1 266 380.8 299.6 436.8 c 1
EndSplineSet
EndChar

StartChar: ebreve
Encoding: 277 277 56
Width: 347
VWidth: 699
Flags: HW
LayerCount: 2
Fore
SplineSet
333.9 651.7 m 2
 336 651.7 l 2
 350.7 651.7 366.1 637 375.9 629.3 c 0
 420 592.9 424.9 536.2 416.5 474.6 c 0
 412.3 438.2 405.3 401.1 394.8 363.3 c 0
 364.7 249.2 306.6 133.7 206.5 47.5996 c 0
 165.2 11.9004 110.6 -24.5 60.2002 -32.9004 c 0
 51.7998 -34.2998 42 -37.7998 33.5996 -37.7998 c 2
 30.7998 -37.7998 l 2
 12.5996 -35.7002 15.4004 -13.2998 18.2002 2.09961 c 0
 18.9004 6.2998 19.5996 10.5 21 14.7002 c 0
 27.2998 39.2002 39.9004 63.7002 49 88.2002 c 0
 53.9004 102.9 60.9004 122.5 72.0996 135.1 c 0
 80.5 143.5 91 144.9 100.8 147 c 0
 120.4 152.6 140.7 157.5 161 164.5 c 0
 203 178.5 247.8 196.7 280 232.4 c 0
 294 247.8 303.8 265.3 312.9 282.8 c 0
 321.3 298.2 327.6 314.3 331.8 330.4 c 0
 339.5 357.7 340.2 385 329.7 406.7 c 0
 320.6 426.3 303.8 440.3 283.5 449.4 c 0
 261.1 460.6 236.6 469.7 214.9 482.3 c 0
 207.9 486.5 195.3 490.7 191.8 499.1 c 0
 189.7 505.4 191.1 515.2 192.5 522.9 c 0
 193.2 525.7 193.2 528.5 194.6 532 c 0
 202.3 561.4 228.2 592.2 251.3 615.3 c 0
 259.7 624.4 269.5 637 280 643.3 c 0
 297.5 652.4 317.1 650.3 333.9 651.7 c 2
EndSplineSet
EndChar

StartChar: Edotaccent
Encoding: 278 278 57
Width: 580
VWidth: 699
Flags: HMW
HStem: 464.1 173.6<317.8 426.3>
LayerCount: 2
Fore
SplineSet
317.8 464.1 m 1
 282.1 426.3 l 1
 257.6 396.9 l 1
 230.3 365.4 l 1
 212.1 338.1 l 1
 203 294 l 1
 205.8 249.9 l 1
 218.4 203.7 l 1
 236.6 178.5 l 1
 256.9 165.9 l 1
 274.4 153.3 l 1
 322 142.8 l 1
 365.4 140.7 l 1
 410.2 151.2 l 1
 455 170.1 l 1
 510.3 212.1 l 1
 545.3 264.6 l 1
 572.6 342.3 l 1
 580.3 386.4 l 1
 574.7 413.7 l 1
 557.2 441 l 1
 527.8 457.8 l 1
 473.9 468.3 l 1
 403.9 466.2 l 1
 317.8 464.1 l 1
135.8 105 m 1
 130.2 94.5 126.7 84 123.9 72.7998 c 0
 115.5 41.2998 116.2 9.09961 116.9 -20.2998 c 0
 116.9 -38.5 119 -56 114.1 -74.2002 c 0
 111.3 -83.2998 107.8 -91.7002 102.2 -100.1 c 0
 85.4004 -124.6 63 -128.1 39.2002 -128.1 c 2
 37.7998 -128.1 l 2
 30.7998 -128.1 20.2998 -128.1 15.4004 -123.9 c 0
 9.09961 -117.6 8.40039 -101.5 8.40039 -91.7002 c 0
 9.09961 -84 9.7998 -77 11.9004 -70 c 0
 23.0996 -28 57.4004 14.7002 71.4004 55.2998 c 0
 96.5996 129.5 113.4 204.4 136.5 277.9 c 0
 144.2 302.4 149.1 327.6 158.2 352.1 c 0
 158.9 353.5 158.9 354.2 159.6 355.6 c 1
 161.7 364 l 2
 162.4 366.1 163.1 368.9 164.5 371.7 c 0
 176.4 394.1 203 417.2 221.9 435.4 c 0
 227.5 441 242.9 452.2 245.7 459.2 c 1
 245.7 459.9 l 1
 247.8 466.2 231 474.6 226.8 477.4 c 0
 210 488.6 198.8 498.4 200.9 522.2 c 0
 201.6 531.3 203.7 541.1 205.8 550.2 c 0
 214.2 582.4 231.7 613.9 243.6 645.4 c 2
 256.2 676.9 l 2
 257.6 680.4 257.6 685.3 261.8 688.8 c 0
 275.8 699.3 295.4 693.7 309.4 697.2 c 1
 309.4 683.9 305.9 666.4 312.9 655.2 c 0
 322.7 641.2 340.2 639.8 357.7 638.4 c 0
 369.6 637.7 382.2 637.7 394.1 637.7 c 2
 426.3 637.7 l 1
 443.8 637.7 l 2
 516.6 637.7 600.6 635.6 633.5 575.4 c 0
 653.8 537.6 650.3 480.9 645.4 433.3 c 0
 641.9 396.9 634.9 359.1 624.4 320.6 c 0
 599.9 228.9 555.1 136.5 481.6 64.4004 c 0
 434.7 18.2002 378.7 -21.7002 317.8 -30.0996 c 0
 307.3 -31.5 297.5 -31.5 288.4 -31.5 c 0
 235.9 -31.5 193.9 -11.2002 170.1 32.2002 c 0
 164.5 43.4004 158.9 55.2998 155.4 67.9004 c 0
 151.2 84 151.9 97.2998 135.8 105 c 1
EndSplineSet
EndChar

StartChar: edotaccent
Encoding: 279 279 58
Width: 580
VWidth: 699
Flags: HMW
HStem: -32.9 165.2<106.4 144.55>
LayerCount: 2
Fore
SplineSet
270.9 142.8 m 1
 293.3 144.2 317.1 148.4 340.2 151.9 c 0
 379.4 158.9 421.4 166.6 459.2 188.3 c 0
 510.3 218.4 557.2 280 572.6 338.1 c 0
 580.3 366.1 580.3 394.1 569.1 415.8 c 0
 553.7 448.7 519.4 457.1 484.4 466.2 c 0
 471.1 469.7 457.8 473.9 445.9 480.2 c 0
 441.7 483 436.1 485.1 434 490 c 0
 432.6 494.2 432.6 498.4 434 503.3 c 0
 437.5 515.2 446.6 527.8 452.9 537.6 c 0
 473.2 570.5 492.1 607.6 522.2 634.9 c 0
 533.4 646.1 546 658 561.4 658.7 c 2
 563.5 658.7 l 2
 581 658.7 590.8 644.7 602 634.9 c 0
 641.9 602 656.6 543.2 655.2 487.2 c 0
 654.5 452.2 648.9 417.9 639.1 382.2 c 0
 603.4 247.8 508.2 95.9004 365.4 28.7002 c 0
 280 -11.9004 186.9 -32.9004 102.2 -32.9004 c 0
 82.5996 -32.9004 63.7002 -32.9004 44.7998 -31.5 c 0
 38.5 -30.7998 28 -32.2002 25.2002 -26.5996 c 0
 18.2002 -11.9004 18.9004 5.59961 23.7998 23.7998 c 0
 30.0996 47.5996 43.4004 72.0996 53.2002 92.4004 c 0
 59.5 104.3 65.7998 126 79.7998 132.3 c 0
 82.5996 133 85.4004 133.7 88.9004 133.7 c 0
 94.5 133.7 101.5 132.3 106.4 132.3 c 2
 153.3 132.3 l 1
 176.4 132.3 l 1
 179.2 132.3 l 2
 188.3 132.3 205.8 132.3 212.1 138.6 c 0
 215.6 141.4 217.7 148.4 219.1 154.7 c 2
 220.5 158.2 221.2 162.4 221.9 165.2 c 1
 222.6 165.9 222.6 166.6 222.6 167.3 c 2
 226.8 182 l 2
 236.6 217 240.8 251.3 247.8 285.6 c 0
 254.8 322 261.1 357 263.9 392.7 c 0
 264.6 407.4 266.7 423.5 264.6 437.5 c 0
 263.2 447.3 251.3 455 245 462 c 0
 228.9 478.8 210 498.4 217 527.8 c 1
 217.7 529.2 l 1
 221.2 541.8 228.2 554.4 234.5 567 c 0
 245.7 588 256.2 609.7 271.6 629.3 c 0
 278.6 638.4 289.1 651.7 299.6 657.3 c 0
 302.4 658.7 305.2 659.4 308.7 659.4 c 0
 317.8 659.4 328.3 655.9 333.9 653.8 c 0
 343 650.3 349.3 643.3 356.3 637.7 c 0
 373.1 623 394.1 604.8 395.5 579.6 c 0
 395.5 574.7 394.8 570.5 393.4 565.6 c 0
 390.6 554.4 384.3 543.2 379.4 532 c 0
 368.2 501.9 357 472.5 347.2 442.4 c 0
 333.9 403.9 322.7 364.7 312.2 326.2 c 0
 295.4 264.6 282.1 203.7 270.9 142.8 c 1
EndSplineSet
EndChar

StartChar: Eogonek
Encoding: 280 280 59
Width: 541
VWidth: 699
Flags: HW
LayerCount: 2
Fore
SplineSet
403.9 639.1 m 0
 407.4 639.8 411.6 639.8 415.1 639.8 c 0
 429.8 639.8 444.5 637 457.1 634.9 c 0
 511 625.8 557.9 602 592.9 566.3 c 0
 604.8 554.4 614.6 542.5 621.6 527.8 c 2
 624.4 523.6 628.6 518 629.3 512.4 c 0
 629.3 511 628.6 508.9 628.6 506.8 c 1
 627.2 502.6 624.4 497.7 623 494.2 c 0
 616.7 474.6 606.9 455.7 597.1 437.5 c 0
 565.6 378 529.9 322 505.4 260.4 c 0
 497 238.7 490 217 484.4 196 c 0
 472.5 151.2 465.5 107.1 459.2 61.5996 c 0
 450.1 -4.90039 443.1 -70.7002 432.6 -137.2 c 0
 429.1 -158.9 424.9 -180.6 420 -202.3 c 0
 418.6 -209.3 417.9 -216.3 415.8 -223.3 c 0
 415.1 -226.1 414.4 -229.6 413 -232.4 c 0
 396.9 -267.4 364.7 -296.1 331.8 -317.1 c 0
 317.8 -326.2 293.3 -344.4 277.9 -345.1 c 2
 275.8 -345.1 l 2
 255.5 -345.1 249.9 -326.9 252.7 -308 c 0
 253.4 -305.2 254.1 -302.4 254.8 -298.9 c 0
 257.6 -289.8 261.8 -280 263.9 -270.2 c 2
 292.6 -168 l 2
 310.8 -99.4004 332.5 -30.0996 350.7 39.2002 c 2
 364 88.2002 l 2
 377.3 138.6 392.7 189.7 419.3 238 c 0
 435.4 268.8 453.6 298.2 473.2 327.6 c 0
 480.2 338.8 496.3 356.3 499.8 368.2 c 1
 499.8 369.6 l 1
 504 389.9 488.6 408.8 477.4 420.7 c 0
 442.4 457.8 399.7 482.3 343 489.3 c 0
 333.2 490 320.6 492.8 308.7 492.8 c 0
 303.8 492.8 298.9 492.8 294 491.4 c 0
 277.9 485.8 256.9 466.9 244.3 455 c 0
 226.8 437.5 215.6 417.2 210 396.2 c 0
 203.7 373.1 204.4 348.6 211.4 328.3 c 0
 219.1 308 233.1 290.5 247.8 275.8 c 0
 262.5 260.4 285.6 249.9 295.4 230.3 c 0
 305.2 211.4 300.3 190.4 296.8 167.3 c 0
 296.1 161 295.4 152.6 293.3 144.9 c 0
 292.6 142.1 291.9 140 291.2 137.9 c 1
 288.4 133.7 282.8 130.9 278.6 128.8 c 0
 266 122.5 252.7 117.6 240.1 114.8 c 0
 229.6 112.7 220.5 112 211.4 112 c 0
 171.5 112 138.6 130.2 122.5 163.1 c 0
 104.3 201.6 108.5 252 119 298.2 c 0
 120.4 305.2 121.8 312.2 123.9 319.2 c 0
 144.9 398.3 185.5 471.8 246.4 539.7 c 0
 278.6 575.4 317.8 605.5 360.5 624.4 c 0
 373.8 630 389.9 637.7 403.9 639.1 c 0
EndSplineSet
EndChar

StartChar: eogonek
Encoding: 281 281 60
Width: 580
VWidth: 699
Flags: HMW
HStem: -37.1 166.6<144.9 154.7 154.7 158.2 144.9 163.1> 465.5 165.2
LayerCount: 2
Fore
SplineSet
318.5 694.4 m 1
 320.6 678.3 313.6 662.9 324.8 649.6 c 0
 341.6 629.3 376.6 632.8 403.2 630.7 c 0
 461.3 626.5 525 633.5 578.2 615.3 c 0
 648.9 590.8 650.3 496.3 639.8 424.2 c 0
 637.7 410.2 635.6 396.2 632.1 382.2 c 0
 630.7 374.5 628.6 366.1 626.5 358.4 c 0
 602.7 270.2 555.8 175.7 482.3 105 c 0
 426.3 50.4004 346.5 7.7002 276.5 -14 c 0
 233.1 -27.2998 184.8 -37.0996 141.4 -37.0996 c 0
 130.9 -37.0996 120.4 -37.0996 109.9 -35.7002 c 0
 96.5996 -33.5996 69.2998 -35 65.0996 -20.2998 c 0
 64.4004 -16.0996 65.0996 -11.2002 66.5 -5.59961 c 2
 68.5996 2.7998 l 2
 69.2998 4.90039 70 6.2998 70 7.7002 c 0
 71.4004 15.4004 72.7998 22.4004 74.9004 30.0996 c 0
 80.5 51.0996 88.9004 72.7998 98.7002 93.0996 c 0
 103.6 103.6 112.7 121.1 124.6 126.7 c 0
 130.2 128.8 137.9 129.5 144.9 129.5 c 2
 154.7 129.5 l 1
 158.2 129.5 l 2
 177.8 130.2 197.4 132.3 217.7 133 c 0
 292.6 138.6 378.7 139.3 453.6 184.1 c 0
 510.3 217.7 548.8 272.3 563.5 329 c 0
 565.6 336 567 343.7 568.4 350.7 c 0
 574 385 570.5 420.7 546.7 441 c 0
 532 454.3 500.5 457.8 479.5 460.6 c 0
 458.5 464.1 437.5 465.5 415.8 465.5 c 0
 403.2 465.5 390.6 464.8 378 464.1 c 0
 365.4 462.7 350 463.4 336.7 458.5 c 0
 312.2 448.7 282.8 415.8 272.3 392.7 c 1
 272.3 392 271.6 391.3 271.6 390.6 c 0
 269.5 382.2 273.7 373.8 277.2 367.5 c 0
 285.6 350.7 305.9 336.7 299.6 312.9 c 0
 299.6 312.2 298.9 310.8 298.9 310.1 c 1
 294.7 298.9 286.3 289.8 277.9 280 c 0
 261.1 260.4 241.5 237.3 217.7 227.5 c 0
 210 224 197.4 220.5 188.3 220.5 c 0
 185.5 220.5 182.7 220.5 180.6 221.9 c 0
 169.4 226.8 160.3 239.4 154.7 249.9 c 0
 142.8 270.2 137.9 295.4 144.9 322 c 0
 147 329.7 149.8 337.4 154 345.1 c 0
 163.1 361.9 177.1 376.6 190.4 390.6 c 0
 205.1 405.3 221.2 417.9 236.6 431.9 c 0
 241.5 436.1 252 442.4 253.4 448 c 1
 254.1 448.7 l 1
 256.9 459.2 238 460.6 232.4 464.1 c 0
 221.2 469.7 214.2 485.1 211.4 497 c 0
 205.8 515.9 207.9 536.9 213.5 558.6 c 0
 221.2 585.9 234.5 614.6 246.4 640.5 c 2
 261.8 673.4 l 2
 263.9 677.6 265.3 683.9 268.8 686.7 c 0
 273.7 690.2 281.4 690.2 286.3 690.2 c 0
 296.1 690.9 308 690.2 318.5 694.4 c 1
EndSplineSet
EndChar

StartChar: Ecaron
Encoding: 282 282 61
Width: 426
VWidth: 699
Flags: HW
LayerCount: 2
Fore
SplineSet
567 694.4 m 1
 571.9 681.1 566.3 658.7 563.5 643.3 c 2
 559.3 626.5 l 2
 547.4 581 520.8 534.8 476.7 505.4 c 0
 458.5 493.5 437.5 484.4 417.9 478.1 c 0
 410.2 476 394.1 473.9 387.8 468.3 c 0
 380.1 460.6 375.9 443.1 372.4 433.3 c 0
 347.9 373.8 327.6 313.6 311.5 253.4 c 0
 305.9 232.4 300.3 210.7 296.1 189.7 c 0
 290.5 166.6 282.8 142.8 279.3 119.7 c 0
 275.8 100.1 276.5 80.5 275.1 61.5996 c 0
 269.5 5.59961 264.6 -51.0996 249.2 -107.1 c 0
 246.4 -117.6 243.6 -127.4 240.1 -137.2 c 0
 232.4 -160.3 218.4 -182 205.1 -203 c 0
 186.9 -231.7 168 -260.4 147 -287.7 c 0
 137.2 -300.3 126 -312.2 114.1 -323.4 c 0
 109.2 -328.3 104.3 -335.3 98 -338.1 c 0
 93.7998 -340.2 90.2998 -341.6 87.5 -341.6 c 0
 77 -341.6 73.5 -329 70 -320.6 c 0
 58.7998 -294.7 63.7002 -256.9 67.9004 -225.4 c 0
 70.7002 -206.5 74.9004 -186.9 80.5 -168 c 0
 95.2002 -112 119 -56.7002 142.1 -0.700195 c 0
 164.5 51.7998 184.8 105 205.1 157.5 c 2
 282.8 352.8 l 2
 297.5 389.9 309.4 429.8 328.3 465.5 c 1
 274.4 465.5 212.1 473.9 185.5 516.6 c 0
 171.5 537.6 172.2 566.3 179.9 595.7 c 0
 184.8 612.5 191.8 630 199.5 645.4 c 0
 207.2 660.1 223.3 683.9 238.7 691.6 c 1
 240.8 691.6 l 2
 247.1 691.6 253.4 677.6 256.2 674.1 c 0
 273 655.9 294.7 643.3 320.6 637.7 c 0
 340.2 632.8 362.6 630 385 630 c 0
 414.4 630 444.5 634.2 473.2 643.3 c 0
 504 653.8 539 674.8 567 694.4 c 1
EndSplineSet
EndChar

StartChar: ecaron
Encoding: 283 283 62
Width: 387
VWidth: 699
Flags: HW
LayerCount: 2
Fore
SplineSet
324.1 625.1 m 1
 343.7 622.3 367.5 621.6 384.3 613.2 c 0
 448.7 580.3 455.7 501.9 445.9 427.7 c 0
 442.4 400.4 437.5 372.4 429.8 344.4 c 0
 404.6 250.6 357 156.8 283.5 78.4004 c 0
 242.9 35.7002 184.8 -7.7002 130.2 -25.2002 c 0
 115.5 -30.0996 99.4004 -31.5 84.7002 -32.9004 c 0
 73.5 -34.2998 61.5996 -36.4004 50.4004 -36.4004 c 0
 46.9004 -36.4004 44.0996 -36.4004 40.5996 -35.7002 c 0
 28 -33.5996 30.0996 -7 31.5 4.2002 c 0
 32.2002 10.5 33.5996 16.7998 35.7002 23.7998 c 0
 38.5 35 42.7002 46.2002 46.2002 57.4004 c 0
 54.5996 82.5996 61.5996 109.2 82.5996 131.6 c 0
 93.7998 142.1 105 143.5 118.3 147 c 0
 135.8 150.5 154 154.7 172.2 159.6 c 0
 235.9 176.4 298.2 198.8 339.5 260.4 c 0
 352.8 280 362.6 301.7 368.2 323.4 c 0
 382.2 375.9 372.4 428.4 326.2 448 c 0
 301.7 457.8 274.4 462.7 248.5 469.7 c 0
 236.6 472.5 219.1 476 212.1 485.1 c 0
 206.5 491.4 206.5 506.1 206.5 515.2 c 0
 206.5 529.9 208.6 546 213.5 562.1 c 0
 217 575.4 221.9 588 228.2 600.6 c 0
 244.3 633.5 268.8 653.1 296.1 678.3 c 0
 317.8 698.6 338.1 720.3 356.3 742.7 c 0
 378 770 394.8 802.2 427.7 817.6 c 0
 446.6 826 468.3 830.2 488.6 830.2 c 0
 504 830.2 518.7 827.4 530.6 821.8 c 0
 546 813.4 555.1 798.7 550.2 779.8 c 0
 548.8 775.6 547.4 771.4 544.6 767.2 c 0
 532 746.2 508.2 734.3 487.9 721.7 c 0
 444.5 694.4 396.2 684.6 354.2 653.8 c 0
 342.3 645.4 333.9 635.6 324.1 625.1 c 1
EndSplineSet
EndChar

StartChar: Gcircumflex
Encoding: 284 284 63
Width: 580
VWidth: 699
Flags: HMW
HStem: 462.7 168<427.35 499.45>
LayerCount: 2
Fore
SplineSet
274.4 382.2 m 1
 249.9 337.4 234.5 290.5 220.5 245 c 0
 215.6 229.6 210.7 213.5 206.5 198.1 c 0
 201.6 179.9 197.4 161.7 194.6 144.2 c 0
 187.6 104.3 186.9 65.0996 182.7 26.5996 c 0
 175 -48.2998 165.2 -123.2 145.6 -198.8 c 2
 140 -217.7 l 2
 135.8 -231.7 131.6 -249.2 124.6 -262.5 c 0
 107.8 -291.9 74.9004 -315.7 45.5 -330.4 c 0
 31.5 -338.1 15.4004 -345.8 1.40039 -345.8 c 0
 -5.59961 -345.8 -11.9004 -343.7 -16.7998 -339.5 c 0
 -26.5996 -331.1 -18.9004 -309.4 -16.0996 -296.8 c 0
 -15.4004 -289.8 -14 -283.5 -11.9004 -276.5 c 0
 -7.7002 -261.1 -2.09961 -245.7 2.09961 -230.3 c 0
 3.5 -226.1 4.90039 -222.6 5.59961 -218.4 c 0
 10.5 -200.2 14 -182 18.2002 -164.5 c 0
 22.4004 -145.6 27.2998 -126 32.2002 -107.1 c 0
 45.5 -59.5 60.2002 -11.2002 72.7998 37.0996 c 2
 76.2998 48.2998 l 1
 90.2998 102.2 l 2
 103.6 152.6 119 203 142.1 252.7 c 0
 157.5 286.3 177.1 318.5 199.5 350 c 0
 205.8 358.4 215.6 375.9 224.7 380.8 c 0
 226.8 382.2 229.6 382.2 231.7 382.2 c 2
 239.4 382.2 l 1
 274.4 382.2 l 1
300.3 686 m 2
 301.7 686 l 2
 311.5 686 304.5 663.6 306.6 656.6 c 0
 310.8 641.2 324.1 632.8 340.2 630 c 0
 355.6 627.9 371.7 627.2 388.5 627.2 c 0
 422.8 627.2 457.8 630.7 492.1 630.7 c 0
 506.8 630.7 522.2 630 536.9 627.9 c 0
 570.5 624.4 602.7 614.6 618.8 587.3 c 0
 633.5 562.8 637.7 529.9 639.8 499.8 c 0
 641.9 471.8 639.8 443.1 635.6 414.4 c 0
 632.1 390.6 627.2 366.8 620.9 343 c 0
 599.2 262.5 560.7 181.3 504.7 109.2 c 0
 468.3 61.5996 403.2 16.0996 346.5 16.0996 c 0
 343 16.0996 339.5 16.0996 336 16.7998 c 0
 330.4 17.5 326.9 21.7002 323.4 24.5 c 0
 317.8 28.7002 311.5 32.9004 309.4 39.9004 c 0
 308.7 43.4004 308.7 47.5996 310.1 51.7998 c 0
 312.9 63 322 75.5996 329.7 82.5996 c 0
 358.4 108.5 396.2 111.3 426.3 133.7 c 0
 490 179.2 538.3 244.3 556.5 312.9 c 0
 558.6 319.9 560 326.9 561.4 334.6 c 0
 564.9 356.3 568.4 380.1 562.8 399.7 c 0
 546.7 451.5 497 462.7 443.1 462.7 c 0
 411.6 462.7 378 459.2 349.3 457.1 c 0
 333.2 455.7 317.8 455 302.4 455 c 2
 288.4 455 l 2
 259 455 227.5 456.4 210 476.7 c 0
 195.3 494.2 198.8 515.9 205.1 540.4 c 0
 205.8 543.2 206.5 546 207.2 549.5 c 0
 214.2 574.7 224 600.6 233.8 625.8 c 0
 238.7 638.4 243.6 651 249.2 662.9 c 0
 251.3 667.8 252.7 674.8 256.9 678.3 c 0
 268.1 687.4 288.4 684.6 300.3 686 c 2
EndSplineSet
EndChar

StartChar: gcircumflex
Encoding: 285 285 64
Width: 501
VWidth: 699
Flags: HMW
HStem: 471.1 161.7
LayerCount: 2
Fore
SplineSet
219.1 697.2 m 1
 239.4 697.2 l 1
 249.9 697.2 l 2
 252 697.2 255.5 697.9 258.3 697.9 c 0
 259.7 697.9 261.1 697.9 261.8 697.2 c 0
 266 693.7 263.2 681.1 263.2 675.5 c 0
 263.9 658 268.1 644.7 286.3 639.8 c 0
 304.5 634.9 324.1 633.5 345.1 633.5 c 0
 371.7 633.5 399 635.6 425.6 635.6 c 0
 457.1 635.6 487.2 632.1 512.4 617.4 c 0
 549.5 595 559.3 541.8 562.8 497.7 c 0
 565.6 448 558.6 394.1 544.6 339.5 c 0
 526.4 273 497 205.8 460.6 144.9 c 0
 436.8 105.7 411.6 67.9004 379.4 34.2998 c 0
 362.6 16.0996 345.8 -0.700195 323.4 -11.2002 c 0
 308 -18.9004 288.4 -25.2002 271.6 -25.2002 c 0
 256.9 -25.2002 244.3 -20.2998 238.7 -7 c 0
 235.2 2.09961 234.5 12.5996 237.3 23.7998 c 0
 240.8 35 247.1 46.2002 256.9 55.2998 c 0
 268.8 67.2002 284.9 76.2998 298.2 86.7998 c 0
 311.5 96.5996 324.1 107.8 336 118.3 c 0
 405.3 180.6 463.4 249.2 485.8 332.5 c 0
 496.3 372.4 498.4 410.9 475.3 438.2 c 0
 459.2 457.1 431.2 465.5 404.6 468.3 c 0
 388.5 470.4 372.4 471.1 356.3 471.1 c 0
 323.4 471.1 289.8 468.3 256.9 468.3 c 0
 217.7 468.3 171.5 471.8 164.5 514.5 c 0
 163.8 521.5 165.9 530.6 167.3 538.3 c 0
 169.4 550.9 172.2 563.5 175.7 576.1 c 2
 182.7 602.7 l 2
 191.1 634.2 206.5 665.7 219.1 697.2 c 1
EndSplineSet
EndChar

StartChar: Gbreve
Encoding: 286 286 65
Width: 580
VWidth: 699
Flags: HMW
HStem: -7 167.3<299.25 354.2> 468.3 168.7
VStem: 563.5 53.2
LayerCount: 2
Fore
SplineSet
308 702.1 m 1
 357 702.1 l 1
 350 676.2 353.5 653.1 376.6 643.3 c 0
 383.6 639.8 393.4 640.5 401.8 639.8 c 0
 415.1 638.4 428.4 637.7 441.7 637 c 0
 460.6 635.6 479.5 634.9 498.4 634.9 c 0
 526.4 634.9 555.1 637 584.5 642.6 c 0
 613.2 648.9 646.1 669.2 659.4 697.9 c 1
 711.2 697.9 l 1
 703.5 670.6 688.8 640.5 674.1 614.6 c 0
 660.1 589.4 646.1 564.2 629.3 540.4 c 0
 623 532 617.4 520.8 609 513.1 c 0
 584.5 492.8 550.2 482.3 522.2 476 c 0
 496.3 469.7 471.8 468.3 447.3 468.3 c 0
 411.6 468.3 375.9 471.8 340.2 471.8 c 0
 325.5 471.8 310.1 471.1 294.7 469.7 c 1
 275.1 396.2 250.6 323.4 231 249.9 c 1
 231 249.2 l 1
 228.2 238 l 2
 224.7 224.7 220.5 211.4 215.6 198.1 c 0
 214.9 196 212.8 191.1 211.4 186.2 c 0
 210.7 182 210 178.5 211.4 176.4 c 0
 214.9 171.5 226.8 170.1 233.1 168.7 c 0
 254.1 163.8 277.2 163.8 300.3 162.4 c 0
 314.3 161 328.3 160.3 343 160.3 c 0
 365.4 160.3 389.2 162.4 413 170.8 c 0
 492.8 198.8 541.8 284.2 563.5 354.9 c 1
 617.4 354.9 l 1
 596.4 277.2 567 198.1 522.2 124.6 c 0
 506.8 98 487.2 66.5 464.1 44.7998 c 0
 438.9 21.7002 406.7 8.40039 376.6 0.700195 c 0
 354.2 -4.90039 332.5 -7 310.8 -7 c 0
 287.7 -7 265.3 -4.90039 243.6 -2.7998 c 0
 230.3 -1.40039 214.2 2.7998 199.5 2.7998 c 0
 193.9 2.7998 188.3 2.09961 182.7 0.700195 c 0
 146.3 -10.5 141.4 -53.9004 115.5 -77 c 0
 103.6 -87.5 88.9004 -88.9004 75.5996 -88.9004 c 0
 67.9004 -88.9004 60.9004 -88.2002 53.9004 -88.2002 c 1
 57.4004 -81.9004 59.5 -74.9004 61.5996 -67.9004 c 2
 63.7002 -58.0996 l 2
 64.4004 -55.2998 65.7998 -52.5 66.5 -49.7002 c 0
 75.5996 -22.4004 84 4.90039 92.4004 32.2002 c 2
 169.4 277.2 l 2
 182.7 318.5 194.6 360.5 208.6 401.8 c 0
 213.5 415.1 217 428.4 221.9 442.4 c 0
 224 448.7 227.5 456.4 229.6 463.4 c 1
 229.6 465.5 230.3 467.6 230.3 469.7 c 0
 231 475.3 221.2 476.7 216.3 478.1 c 0
 205.1 481.6 177.1 487.9 182 505.4 c 1
 182 505.4 l 1
 183.4 511 189 517.3 192.5 522.2 c 2
 217 560 l 1
 270.2 643.3 l 2
 282.8 662.2 297.5 682.5 308 702.1 c 1
EndSplineSet
EndChar

StartChar: gbreve
Encoding: 287 287 66
Width: 580
VWidth: 699
Flags: HMW
HStem: -27.3 14.7G<53.55 59.5> 462 165.2<398.3 441.7 413 437.5>
LayerCount: 2
Fore
SplineSet
269.5 459.2 m 1
 257.6 462.7 240.8 468.3 233.1 478.1 c 0
 217.7 497 219.1 525.7 226.8 554.4 c 0
 233.1 578.9 244.3 604.1 252.7 625.1 c 0
 259 640.5 265.3 655.9 270.2 670.6 c 1
 270.2 672 l 1
 270.9 673.4 271.6 676.9 272.3 679 c 0
 273 682.5 273.7 684.6 275.8 686 c 0
 277.9 687.4 280 687.4 282.8 687.4 c 2
 289.8 687.4 l 1
 289.8 687.4 l 1
 301.7 687.4 312.9 688.1 324.1 688.1 c 1
 323.4 673.4 325.5 657.3 334.6 646.8 c 0
 350.7 627.9 386.4 627.2 413 627.2 c 2
 441.7 627.2 l 2
 478.1 627.2 514.5 626.5 549.5 620.2 c 0
 579.6 615.3 607.6 604.8 623 580.3 c 0
 630.7 568.4 633.5 553.7 636.3 538.3 c 0
 641.2 515.2 644 491.4 643.3 466.9 c 0
 642.6 427 637 386.4 625.8 346.5 c 0
 607.6 277.2 574.7 208.6 529.9 144.9 c 0
 494.2 93.7998 429.1 23.0996 368.9 23.0996 c 0
 358.4 23.0996 348.6 25.2002 338.8 29.4004 c 0
 323.4 36.4004 329 60.9004 332.5 77 c 0
 333.2 79.7998 333.9 82.5996 334.6 84.7002 c 0
 335.3 88.9004 337.4 92.4004 341.6 95.9004 c 0
 368.2 116.2 399.7 123.9 428.4 140 c 0
 459.9 158.2 490 187.6 511 217 c 0
 536.9 252.7 551.6 291.2 562.1 329.7 c 2
 563.5 336.7 l 2
 571.2 364.7 574.7 393.4 562.1 415.8 c 0
 539 458.5 488.6 462 437.5 462 c 2
 404.6 462 l 2
 392 462 377.3 464.1 362.6 464.1 c 0
 356.3 464.1 350.7 464.1 344.4 462.7 c 0
 335.3 460.6 324.1 447.3 317.1 440.3 c 0
 292.6 416.5 268.8 392 256.2 361.9 c 0
 253.4 355.6 251.3 349.3 249.9 343 c 0
 242.2 314.3 243.6 287 245 259.7 c 0
 246.4 235.2 244.3 210 245.7 185.5 c 0
 247.8 151.2 252.7 118.3 242.9 81.9004 c 0
 242.2 77 240.8 72.7998 238.7 67.9004 c 0
 229.6 43.4004 217 15.4004 193.2 -2.7998 c 0
 184.8 -9.7998 169.4 -12.5996 159.6 -14.7002 c 0
 130.9 -21.7002 102.9 -26.5996 75.5996 -26.5996 c 0
 70 -26.5996 63 -27.2998 56 -27.2998 c 0
 51.0996 -27.2998 46.2002 -26.5996 43.4004 -24.5 c 0
 36.4004 -20.2998 37.7998 -3.5 38.5 4.90039 c 0
 39.9004 16.7998 42.7002 29.4004 45.5 41.2998 c 2
 53.9004 70 l 2
 55.2998 77 56.7002 84 58.7998 91.7002 c 0
 60.2002 96.5996 61.5996 100.8 63.7002 105 c 0
 72.7998 123.2 95.2002 134.4 112 142.8 c 0
 118.3 145.6 133 149.8 137.2 156.8 c 1
 138.6 160.3 140 163.8 141.4 168 c 0
 143.5 177.1 144.9 186.9 147 195.3 c 0
 153.3 221.9 160.3 247.8 164.5 274.4 c 0
 167.3 291.2 165.9 307.3 170.8 324.8 c 0
 184.1 374.5 226.8 424.2 269.5 459.2 c 1
EndSplineSet
EndChar

StartChar: braceright
Encoding: 125 125 67
Width: 671
VWidth: 699
Flags: HW
LayerCount: 2
Fore
SplineSet
449.4 969.5 m 1
 480.2 969.5 511 966.7 539 959 c 0
 559.3 953.4 578.9 944.3 592.2 930.3 c 0
 621.6 899.5 620.9 847.7 616.7 802.2 c 0
 613.2 773.5 606.9 744.1 599.2 714.7 c 0
 590.8 682.5 580.3 650.3 569.8 618.1 c 2
 557.2 574.7 l 2
 545.3 529.2 537.6 482.3 546.7 442.4 c 0
 553 415.8 570.5 397.6 592.9 385 c 0
 600.6 380.8 611.1 379.4 617.4 374.5 c 1
 606.2 372.4 594.3 367.5 583.1 362.6 c 0
 501.9 326.9 471.8 241.5 452.9 170.1 c 0
 446.6 147.7 441 125.3 436.1 102.9 c 0
 429.1 72.0996 422.8 40.5996 414.4 9.09961 c 0
 405.3 -24.5 394.1 -57.4004 375.9 -90.2998 c 0
 355.6 -127.4 326.9 -162.4 287.7 -182 c 0
 271.6 -190.4 254.8 -196 238 -200.2 c 0
 206.5 -207.2 175 -210 144.9 -210 c 1
 144.9 -209.3 l 1
 155.4 -207.9 165.9 -203.7 175.7 -200.2 c 0
 238 -176.4 268.8 -120.4 291.2 -65.0996 c 0
 300.3 -42 307.3 -19.5996 313.6 3.5 c 0
 328.3 58.7998 336.7 113.4 351.4 168.7 c 0
 359.1 196.7 368.2 224 380.1 252 c 0
 403.2 304.5 445.9 361.2 506.8 374.5 c 1
 506.8 375.2 l 1
 438.9 392.7 439.6 467.6 450.8 532 c 0
 453.6 548.8 457.1 565.6 462 582.4 c 0
 476.7 637 497.7 692.3 512.4 746.9 c 0
 520.1 776.3 526.4 805.7 528.5 835.1 c 0
 529.9 858.9 529.9 884.1 522.9 905.1 c 0
 512.4 937.3 483.7 960.4 448.7 968.1 c 1
 449.4 969.5 l 1
EndSplineSet
EndChar

StartChar: braceleft
Encoding: 123 123 68
Width: 671
VWidth: 699
Flags: HMW
HStem: -230.3 0.7<394.1 408.8>
LayerCount: 2
Fore
SplineSet
252.7 363.3 m 1
 273 369.6 291.9 372.4 311.5 385 c 0
 364.7 418.6 387.8 483.7 404.6 534.8 c 0
 410.9 552.3 415.8 569.8 420.7 587.3 c 0
 431.2 626.5 439.6 666.4 450.1 705.6 c 0
 461.3 747.6 475.3 789.6 495.6 830.2 c 0
 509.6 858.9 527.8 889 553.7 910.7 c 0
 590.1 942.2 639.1 949.9 679.7 949.9 c 0
 687.4 949.9 700 951.3 710.5 951.3 c 0
 716.8 951.3 722.4 950.6 726.6 949.2 c 1
 690.9 941.5 651.7 919.1 627.2 888.3 c 0
 610.4 868 598.5 844.9 588 822.5 c 0
 571.2 787.5 560 751.1 550.2 715.4 c 0
 538.3 669.9 529.2 624.4 516.6 579.6 c 0
 513.8 567 511 554.4 507.5 541.8 c 0
 504.7 532.7 502.6 524.3 499.1 515.2 c 0
 476.7 457.8 451.5 392.7 382.2 371.7 c 0
 372.4 368.2 361.2 366.1 351.4 365.4 c 1
 351.4 364.7 l 1
 404.6 347.9 420.7 291.2 416.5 236.6 c 0
 414.4 198.8 406 159.6 395.5 120.4 c 0
 387.1 90.2998 378 59.5 368.9 30.0996 c 0
 362.6 11.2002 356.3 -8.40039 351.4 -28 c 0
 347.2 -44.0996 343.7 -60.2002 340.9 -75.5996 c 0
 332.5 -133.7 329.7 -192.5 380.8 -219.8 c 0
 389.2 -224 399 -228.2 408.8 -229.6 c 1
 408.8 -230.3 l 1
 379.4 -230.3 350.7 -228.2 324.1 -220.5 c 0
 301.7 -214.2 280.7 -203.7 266.7 -186.9 c 0
 243.6 -156.8 244.3 -106.4 249.9 -65.0996 c 0
 254.1 -32.2002 261.8 1.40039 270.9 35 c 2
 296.8 128.1 l 2
 310.1 178.5 322 229.6 317.1 277.2 c 0
 314.3 303.8 302.4 326.9 283.5 343 c 0
 274.4 350.7 261.1 354.9 252.7 363.3 c 1
EndSplineSet
EndChar

StartChar: Gdotaccent
Encoding: 288 288 69
Width: 541
VWidth: 699
Flags: HMW
HStem: 0.7 0.7
LayerCount: 2
Fore
SplineSet
0.700195 2.09961 m 1
 2.09961 0.700195 l 1
 0.700195 2.09961 l 1
EndSplineSet
EndChar

StartChar: gdotaccent
Encoding: 289 289 71
Width: 617
VWidth: 699
Flags: HW
LayerCount: 2
Fore
SplineSet
476.7 -16.7998 m 1
 510.3 108.5 568.4 240.8 555.1 361.9 c 0
 550.9 401.1 534.8 434 509.6 459.9 c 0
 494.2 476 464.1 485.1 469 512.4 c 0
 476 549.5 508.9 592.9 536.2 623 c 0
 549.5 637.7 562.1 651 581 654.5 c 0
 597.8 658 610.4 652.4 623 645.4 c 0
 651 630 674.8 604.8 683.9 573.3 c 0
 688.8 557.2 687.4 536.2 686 517.3 c 0
 683.2 476 674.1 433.3 660.8 390.6 c 0
 632.8 301 609.7 210.7 576.8 120.4 c 0
 565.6 89.5996 556.5 58.7998 543.9 28 c 0
 540.4 18.9004 535.5 0 527.1 -7 c 0
 514.5 -18.2002 490 -16.7998 476.7 -16.7998 c 1
168 -16.7998 m 1
 200.9 108.5 259.7 240.8 246.4 361.9 c 0
 242.2 401.1 225.4 434 200.2 459.9 c 0
 185.5 476 154.7 485.1 159.6 512.4 c 0
 166.6 549.5 199.5 592.9 226.8 623 c 0
 240.1 637.7 252.7 651 271.6 654.5 c 0
 288.4 658 301.7 652.4 313.6 645.4 c 0
 341.6 630 365.4 604.8 374.5 573.3 c 0
 379.4 557.2 378.7 536.2 377.3 517.3 c 0
 374.5 476 364.7 433.3 351.4 390.6 c 0
 323.4 301 300.3 210.7 267.4 120.4 c 0
 256.2 89.5996 247.8 58.7998 235.2 28 c 0
 231 18.9004 226.1 0 218.4 -7 c 0
 205.1 -18.2002 180.6 -16.7998 168 -16.7998 c 1
EndSplineSet
EndChar

StartChar: Gcommaaccent
Encoding: 290 290 72
Width: 580
VWidth: 699
Flags: HW
LayerCount: 2
Fore
SplineSet
281.4 688.1 m 1
 282.1 687.4 l 1
 281.4 688.1 l 1
237.3 681.8 m 1
 281.4 687.4 l 1
 279.3 682.5 276.5 677.6 275.8 672.7 c 0
 275.1 664.3 274.4 651.7 277.2 644.7 c 0
 290.5 611.8 336.7 604.1 364 586.6 c 0
 384.3 573.3 399 551.6 396.9 524.3 c 0
 395.5 511 390.6 497.7 386.4 484.4 c 0
 361.9 412.3 315.7 343 255.5 287 c 0
 242.9 274.4 228.9 262.5 214.9 252 c 0
 206.5 245 197.4 238.7 188.3 242.9 c 0
 183.4 245 180.6 252.7 177.8 256.9 c 0
 175 260.4 170.1 265.3 170.1 270.2 c 1
 169.4 275.1 177.1 279.3 180.6 282.1 c 0
 191.8 290.5 202.3 300.3 212.8 310.1 c 0
 244.3 338.8 288.4 383.6 282.8 424.2 c 0
 282.1 434 262.5 441 254.8 445.2 c 0
 228.2 457.8 198.1 467.6 178.5 488.6 c 0
 142.8 526.4 182 598.5 212.8 645.4 c 0
 220.5 657.3 230.3 669.2 237.3 681.8 c 1
438.9 -16.7998 m 1
 473.2 110.6 531.3 242.2 517.3 364.7 c 0
 513.1 401.8 497 434.7 472.5 459.9 c 0
 456.4 475.3 425.6 485.1 431.9 513.1 c 0
 438.9 550.2 470.4 591.5 497.7 622.3 c 0
 511 637 523.6 650.3 543.2 654.5 c 0
 558.6 658 570.5 652.4 582.4 646.8 c 0
 611.8 632.8 636.3 605.5 645.4 574.7 c 0
 651 557.2 649.6 535.5 648.9 516.6 c 0
 645.4 471.1 633.5 424.2 619.5 378 c 0
 607.6 340.2 598.5 301.7 586.6 263.2 c 0
 579.6 239.4 569.8 215.6 561.4 191.8 c 0
 553.7 168 548.8 143.5 539 119.7 c 0
 527.1 88.9004 518.7 57.4004 506.1 26.5996 c 0
 502.6 17.5 497 -2.09961 488.6 -7.7002 c 0
 474.6 -18.2002 452.2 -16.7998 438.9 -16.7998 c 1
EndSplineSet
EndChar

StartChar: gcommaaccent
Encoding: 291 291 73
Width: 542
VWidth: 699
Flags: HW
LayerCount: 2
Fore
SplineSet
281.4 688.1 m 1
 282.1 687.4 l 1
 281.4 688.1 l 1
553 688.1 m 1
 553.7 687.4 l 1
 553 688.1 l 1
237.3 681.8 m 1
 281.4 687.4 l 1
 279.3 682.5 276.5 677.6 275.8 672.7 c 0
 275.1 664.3 274.4 651.7 277.2 644.7 c 0
 290.5 611.8 336.7 604.1 364 586.6 c 0
 384.3 573.3 399 551.6 396.9 524.3 c 0
 395.5 511 390.6 497.7 386.4 484.4 c 0
 361.9 412.3 315.7 343 255.5 287 c 0
 242.9 274.4 228.9 262.5 214.9 252 c 0
 206.5 245 197.4 238.7 188.3 242.9 c 0
 183.4 245 180.6 252.7 177.8 256.9 c 0
 175 260.4 170.1 265.3 170.1 270.2 c 1
 169.4 275.1 177.1 279.3 180.6 282.1 c 0
 191.8 290.5 202.3 300.3 212.8 310.1 c 0
 244.3 338.8 288.4 383.6 282.8 424.2 c 0
 282.1 434 262.5 441 254.8 445.2 c 0
 228.2 457.8 198.1 467.6 178.5 488.6 c 0
 142.8 526.4 182 598.5 212.8 645.4 c 0
 220.5 657.3 230.3 669.2 237.3 681.8 c 1
508.2 681.8 m 1
 553 687.4 l 1
 550.9 682.5 547.4 677.6 547.4 672.7 c 1
 546 664.3 546 651.7 548.8 644.7 c 0
 561.4 611.8 608.3 604.1 635.6 586.6 c 0
 655.9 573.3 669.9 551.6 667.8 524.3 c 0
 667.1 511 662.2 497.7 657.3 484.4 c 0
 633.5 412.3 587.3 343 527.1 287 c 0
 513.8 274.4 500.5 262.5 486.5 252 c 0
 478.1 245 469 238.7 459.9 242.9 c 0
 455 245 452.2 252.7 448.7 256.9 c 1
 446.6 260.4 441.7 265.3 441 270.2 c 1
 441 275.1 448.7 279.3 451.5 282.1 c 1
 462.7 290.5 473.9 300.3 484.4 310.1 c 0
 515.2 338.8 560 383.6 554.4 424.2 c 0
 553 434 534.1 441 525.7 445.2 c 0
 499.8 457.8 469 467.6 449.4 488.6 c 0
 414.4 526.4 452.9 598.5 483.7 645.4 c 0
 491.4 657.3 501.2 669.2 508.2 681.8 c 1
EndSplineSet
EndChar

StartChar: Hcircumflex
Encoding: 292 292 74
Width: 270
VWidth: 699
Flags: HMW
VStem: 108.5 288.4
LayerCount: 2
Fore
SplineSet
281.4 688.1 m 1
 282.1 687.4 l 1
 281.4 688.1 l 1
237.3 681.8 m 1
 281.4 687.4 l 1
 279.3 682.5 276.5 677.6 275.8 672.7 c 0
 275.1 664.3 274.4 651.7 277.2 644.7 c 0
 290.5 611.8 336.7 604.1 364 586.6 c 0
 384.3 573.3 399 551.6 396.9 524.3 c 0
 395.5 511 390.6 497.7 386.4 484.4 c 0
 361.9 412.3 315.7 343 255.5 287 c 0
 242.9 274.4 228.9 262.5 214.9 252 c 0
 206.5 245 197.4 238.7 188.3 242.9 c 0
 183.4 245 180.6 252.7 177.8 256.9 c 0
 175 260.4 170.1 265.3 170.1 270.2 c 1
 169.4 275.1 177.1 279.3 180.6 282.1 c 0
 191.8 290.5 202.3 300.3 212.8 310.1 c 0
 244.3 338.8 288.4 383.6 282.8 424.2 c 0
 282.1 434 262.5 441 254.8 445.2 c 0
 228.2 457.8 198.1 467.6 178.5 488.6 c 0
 142.8 526.4 182 598.5 212.8 645.4 c 0
 220.5 657.3 230.3 669.2 237.3 681.8 c 1
115.5 208.6 m 0
 156.8 215.6 167.3 163.1 126.7 139.3 c 0
 121.1 135.8 114.8 133.7 108.5 133 c 0
 58.7998 124.6 65.0996 200.2 115.5 208.6 c 0
EndSplineSet
EndChar
